STARTFONT 2.3
FONT -FontForge-Hanalei-Book-R-Normal--32-320-72-72-P-162-ISO10646-1
SIZE 32 72 72  2
FONTBOUNDINGBOX 42 42 -2 -9
COMMENT "Generated by fontforge, http://fontforge.sourceforge.net"
COMMENT "Copyright (c) 2012 by Brian J. Bonislawsky DBA Astigmatic (AOETI) (astigma@astigmatic.com), with ReservedFont Name "Hanalei""
STARTPROPERTIES 40
FOUNDRY "FontForge"
FAMILY_NAME "Hanalei"
WEIGHT_NAME "Book"
SLANT "R"
SETWIDTH_NAME "Normal"
ADD_STYLE_NAME ""
PIXEL_SIZE 32
POINT_SIZE 320
RESOLUTION_X 72
RESOLUTION_Y 72
SPACING "P"
AVERAGE_WIDTH 162
CHARSET_REGISTRY "ISO10646"
CHARSET_ENCODING "1"
FONTNAME_REGISTRY ""
CHARSET_COLLECTIONS "ISO8859-2 ISO8859-9 ISO8859-4 ISO10646-1"
BITS_PER_PIXEL 2
FONT_NAME "Hanalei-Regular"
FACE_NAME "Hanalei"
COPYRIGHT "Copyright (c) 2012 by Brian J. Bonislawsky DBA Astigmatic (AOETI) (astigma@astigmatic.com), with ReservedFont Name "Hanalei""
FONT_VERSION "1.000"
FONT_ASCENT 26
FONT_DESCENT 6
UNDERLINE_POSITION -4
UNDERLINE_THICKNESS 1
X_HEIGHT 21
CAP_HEIGHT 21
RAW_ASCENT 799
RAW_DESCENT 200
NORM_SPACE 6
RELATIVE_WEIGHT 40
RELATIVE_SETWIDTH 50
SUPERSCRIPT_X 0
SUPERSCRIPT_Y 15
SUPERSCRIPT_SIZE 20
SUBSCRIPT_X 0
SUBSCRIPT_Y 4
SUBSCRIPT_SIZE 20
AVG_LOWERCASE_WIDTH 174
AVG_UPPERCASE_WIDTH 171
ENDPROPERTIES
CHARS 366
STARTCHAR space
ENCODING 32
SWIDTH 200 0
DWIDTH 6 0
BBX 1 1 0 0
BITMAP
00
ENDCHAR
STARTCHAR exclam
ENCODING 33
SWIDTH 257 0
DWIDTH 8 0
BBX 7 23 1 -1
BITMAP
6A90
8024
8020
5020
5020
5020
5020
A920
9560
9020
5060
5050
5050
9060
9060
2A80
0000
1A40
9090
5080
5080
6580
1500
ENDCHAR
STARTCHAR quotedbl
ENCODING 34
SWIDTH 476 0
DWIDTH 15 0
BBX 14 14 1 10
BITMAP
15401500
A5A19680
80214080
90518080
90508080
80614080
EA62E980
80224080
80514080
80514080
80214080
80224090
90618180
2A406A00
ENDCHAR
STARTCHAR numbersign
ENCODING 35
SWIDTH 1076 0
DWIDTH 34 0
BBX 33 23 1 0
BITMAP
054000150000000000
29A9019681AABAAD00
601A02409200154200
201601408200086600
202241808200169640
202081808305460180
2020914083AAAA0140
656522548202020200
A55E67558202020200
50201A008202020200
60200E408202120600
202807408202AAAB00
202802408606180300
6025018082A8080200
6A5669A98200140200
50668090825A96A600
602180608094140400
602090258015000000
602020098055AAA000
502020068080001400
802414098080001400
80241964C090002400
2AA006EA402AAAA000
ENDCHAR
STARTCHAR dollar
ENCODING 36
SWIDTH 453 0
DWIDTH 15 0
BBX 14 29 0 -4
BITMAP
002A9000
00602000
00602000
00202000
00202B40
0025B480
007E4060
1A920020
20014060
60005A90
2005A000
246E4000
2A82D000
25062400
1A080A40
00940090
00280050
00074090
002E9290
1A922920
24014060
60015A90
2005A000
24696000
0AA05000
01205000
00502000
00502000
002A9000
ENDCHAR
STARTCHAR percent
ENCODING 37
SWIDTH 889 0
DWIDTH 28 0
BBX 28 22 0 0
BITMAP
0AAA9001400000
1A002409600000
20802808080000
20A95808140000
20824814200000
20820820200000
20820820500000
21820869500000
296A0850500000
58020550814000
28025880885A60
06AAA0815A8018
00000081205022
00000192206AA1
00000206105145
00000202105145
00000205105145
0000050822A605
00000808251602
00000808280202
000006681901A8
000000000195A0
ENDCHAR
STARTCHAR ampersand
ENCODING 38
SWIDTH 627 0
DWIDTH 20 0
BBX 20 25 0 -1
BITMAP
0004000000
0026AA4000
007A426A80
0191824060
0200826960
0240958290
00806B40C0
0060260080
00200C0200
0026980800
001C052400
006C022000
0086029000
0242408000
0601806028
08068A6A95
6008B42402
802AA01802
8066140802
A0820806A9
9A42090180
80016A0180
506A820600
264001A800
0400000000
ENDCHAR
STARTCHAR quotesingle
ENCODING 39
SWIDTH 246 0
DWIDTH 8 0
BBX 6 14 1 10
BITMAP
1540
A5A0
8020
9050
9050
8060
EA60
8020
8050
8050
8020
8020
9060
2A40
ENDCHAR
STARTCHAR parenleft
ENCODING 40
SWIDTH 387 0
DWIDTH 12 0
BBX 14 27 -1 -2
BITMAP
00004000
0002A800
00050600
00080200
00180600
00201800
00D02000
01A92000
02015000
06008000
08024000
24060000
60080000
20180000
282D0000
1EA20000
09018000
02406000
00862000
00A81800
00700900
00180200
00090090
00020060
00018090
00008280
00006900
ENDCHAR
STARTCHAR parenright
ENCODING 41
SWIDTH 386 0
DWIDTH 12 0
BBX 13 27 0 -2
BITMAP
00500000
07A40000
18080000
20080000
18060000
06024000
0201D000
014A6000
00942000
00901800
00200900
00180200
00090180
00060180
000A0700
0015AB00
00601800
01802000
02245000
06068000
08028000
24060000
90080000
80240000
80600000
64900000
0A800000
ENDCHAR
STARTCHAR asterisk
ENCODING 42
SWIDTH 517 0
DWIDTH 17 0
BBX 16 15 0 8
BITMAP
0006A000
00082400
00092000
04052014
264520A9
506A9A42
64080802
1AA409A9
00240500
006A2A00
00825140
02452090
05081420
02540990
00500540
ENDCHAR
STARTCHAR plus
ENCODING 43
SWIDTH 458 0
DWIDTH 15 0
BBX 14 15 0 3
BITMAP
00010000
002AA000
00201400
00202000
05212040
26AAAA90
60014020
60014020
60014020
25A9AA90
09216140
00202000
00602000
0029A000
00054000
ENDCHAR
STARTCHAR comma
ENCODING 44
SWIDTH 228 0
DWIDTH 7 0
BBX 8 9 -1 -4
BITMAP
0040
02A8
0209
0802
2409
9024
8060
5080
2A40
ENDCHAR
STARTCHAR hyphen
ENCODING 45
SWIDTH 465 0
DWIDTH 15 0
BBX 14 7 0 7
BITMAP
09564140
2596AA60
20014020
60014020
20014020
2AAAAA90
05000040
ENDCHAR
STARTCHAR period
ENCODING 46
SWIDTH 202 0
DWIDTH 6 0
BBX 6 6 0 -1
BITMAP
1A40
6060
2050
2050
2590
0540
ENDCHAR
STARTCHAR slash
ENCODING 47
SWIDTH 453 0
DWIDTH 15 0
BBX 14 22 0 0
BITMAP
00006A00
00008190
00008020
00018060
00020080
00060240
001E4200
0015A200
00240500
00200800
00502400
00802000
02905000
02688000
02018000
09024000
08060000
24090000
60080000
60180000
19640000
01900000
ENDCHAR
STARTCHAR zero
ENCODING 48
SWIDTH 646 0
DWIDTH 21 0
BBX 21 23 0 0
BITMAP
0003B4000000
00050A800000
000802900000
002406200000
006018180000
01D034060000
026868018000
050586199000
080242602000
240500D01800
964800600600
99A000180180
A060000A00C0
801800624180
900642D09A00
18009624A400
020928088000
009424024000
007180090000
001A00240000
000700900000
000181800000
00006A000000
ENDCHAR
STARTCHAR one
ENCODING 49
SWIDTH 400 0
DWIDTH 13 0
BBX 13 24 -1 -1
BITMAP
00014000
000AEA40
002700C0
01820080
19020140
20020140
600B0140
20260140
0997A980
01420180
00020140
00020240
00020240
00020140
00025180
00065980
00020140
00020240
00020200
00020240
00060140
00090180
00065640
00005400
ENDCHAR
STARTCHAR two
ENCODING 50
SWIDTH 502 0
DWIDTH 16 0
BBX 16 23 0 -1
BITMAP
001AA400
00209800
00806600
02002180
18018090
90068028
90186005
60601809
19800D1C
010066A5
00028009
000B4064
00249180
00A02200
02400900
19006400
14018010
2807AAA8
2609800C
21A48008
20004008
1AAAAAA8
05014010
ENDCHAR
STARTCHAR three
ENCODING 51
SWIDTH 456 0
DWIDTH 15 0
BBX 14 23 0 -1
BITMAP
1A940000
201AA800
20000A00
20000680
24400990
0AAEA860
002C1180
00660600
01809800
0A0B6000
08209000
08902400
06800A00
01D001A0
00190AA0
001BE470
01A90020
2A420020
50020160
50016940
601A8000
29900000
05000000
ENDCHAR
STARTCHAR four
ENCODING 52
SWIDTH 514 0
DWIDTH 16 0
BBX 17 23 -1 -1
BITMAP
0000AAA800
0001460600
0002014600
0005014900
0018060900
00601C0900
00A8280500
01827EA500
0200940500
0902480800
18066E6A00
6009484080
2014080080
2820080080
06D155AA40
0069690900
0000080800
0000080800
0000180800
0000140900
0000200500
0000195800
0000015000
ENDCHAR
STARTCHAR five
ENCODING 53
SWIDTH 500 0
DWIDTH 16 0
BBX 16 22 0 0
BITMAP
0696AAA0
24288014
24148008
14148018
14155AA4
14299010
14140000
21540000
29AAEAA0
28008560
18008AA8
08008809
0AA96C08
01014808
00000808
00000808
1A5A5998
21566969
60024029
50020018
20010020
1AAAAAA0
ENDCHAR
STARTCHAR six
ENCODING 54
SWIDTH 520 0
DWIDTH 17 0
BBX 17 24 0 -1
BITMAP
0015000000
006A900000
0090200000
0090200000
0080500000
0080800000
0240800000
03A4800000
0219C00000
0601A00000
0602190000
0502028000
080601E000
1806025900
1A96850680
2419654080
20081D6180
2015A02A40
6029001D00
9020001800
802001A400
9030290000
1AA1900000
001A000000
ENDCHAR
STARTCHAR seven
ENCODING 55
SWIDTH 423 0
DWIDTH 14 0
BBX 14 23 0 -1
BITMAP
2AAEAA80
81495080
80050050
80050060
814054A0
6AAB96C0
00020140
000A4240
00086600
00080200
00080900
00140800
00201800
00791400
00919400
00802000
00805000
01408000
02008000
09018000
06018000
01AA4000
00040000
ENDCHAR
STARTCHAR eight
ENCODING 56
SWIDTH 527 0
DWIDTH 17 0
BBX 17 23 0 -1
BITMAP
0A56A56800
2455654600
2000600200
200052BA00
39AAAA0900
2A49590200
0902480500
0200A01800
0259602000
00E0205000
0090188000
00B4098000
0148028000
0206058000
0602649000
0806C02000
2408901800
601AB40900
8025080240
60500D0240
1A900A0B40
036AABBE00
0050000000
ENDCHAR
STARTCHAR nine
ENCODING 57
SWIDTH 500 0
DWIDTH 16 0
BBX 17 23 0 -1
BITMAP
00001A0000
001A91F800
1698008600
A506008240
8002058200
8000794900
906AA01800
76A0A92400
9908826000
2402802000
0A02409000
0182018000
0059020000
002E420000
0015A20000
0024050000
0020180000
0090240000
0180200000
0200500000
0240900000
00A5C00000
0005000000
ENDCHAR
STARTCHAR colon
ENCODING 58
SWIDTH 245 0
DWIDTH 8 0
BBX 6 18 1 -1
BITMAP
1540
6590
5050
5080
6090
1A40
0000
0000
0000
0000
0000
0000
1A40
9090
5090
5080
6590
0500
ENDCHAR
STARTCHAR semicolon
ENCODING 59
SWIDTH 270 0
DWIDTH 9 0
BBX 9 22 -1 -5
BITMAP
005400
025640
014200
014200
014600
006800
000000
000000
000000
000000
000000
000000
004000
00A800
024600
060240
080600
200800
502000
205000
1A8000
010000
ENDCHAR
STARTCHAR less
ENCODING 60
SWIDTH 445 0
DWIDTH 14 0
BBX 14 18 0 2
BITMAP
00001900
00006240
00068080
002C0090
01960090
1A024A40
20006400
20019000
20190000
29690000
6281D000
6001A400
29024A80
01950090
00280080
00068080
00006640
00001800
ENDCHAR
STARTCHAR equal
ENCODING 61
SWIDTH 484 0
DWIDTH 16 0
BBX 14 15 1 4
BITMAP
14050100
6AABAA80
80020090
80020050
80020090
66A5A980
19050140
00000000
14050100
6AABAA80
80020090
80020050
80020090
66A5A980
19050140
ENDCHAR
STARTCHAR greater
ENCODING 62
SWIDTH 445 0
DWIDTH 14 0
BBX 13 18 1 2
BITMAP
0A000000
35800000
90640000
800B4000
D0189000
29202900
02500240
00A00140
00190200
001A4B00
00A0A540
02900140
68201A00
80149000
80064000
90640000
26400000
05000000
ENDCHAR
STARTCHAR question
ENCODING 63
SWIDTH 455 0
DWIDTH 15 0
BBX 13 24 1 -1
BITMAP
14000000
66400000
806A0000
8002A500
80061680
94090080
16940080
002E8280
00646A80
02400680
0A002800
1A019000
09960000
08680000
08080000
18080000
0AA40000
00000000
06900000
24240000
14240000
14200000
19600000
01400000
ENDCHAR
STARTCHAR at
ENCODING 64
SWIDTH 812 0
DWIDTH 26 0
BBX 25 26 1 -2
BITMAP
01000000000000
06AAEAAE5A0000
180050085B4000
68004008245000
68554541605000
26D5A56A605000
20815541142000
20855595956000
64840080991400
A5969040981400
50851EA6980800
60850820550800
2085082046A500
50881420820500
6489A020420500
66A61AAABA4200
50990050264140
50850050214600
50826945106D00
508041A5AAA800
80AA4000001000
90826A00000000
2E420100000000
0A910200000000
000A9200000000
00001800000000
ENDCHAR
STARTCHAR A
ENCODING 65
SWIDTH 507 0
DWIDTH 16 0
BBX 17 23 0 0
BITMAP
0015000000
00AA900000
0080200000
00803A0000
0080920000
0180820000
0240820000
03A0814000
0619808000
0601998000
0502A09000
0902505000
0805205500
180575B600
1A97A50180
2419200080
2408200080
2014106A40
20255A5900
902A590500
8020050200
9020050600
1A9006A400
ENDCHAR
STARTCHAR B
ENCODING 66
SWIDTH 533 0
DWIDTH 17 0
BBX 16 25 1 -1
BITMAP
01900000
0A290000
6C06A400
68002900
280021A5
2A906006
20794002
6022A402
A9602A49
956690BD
502A0018
502181A4
60208600
50202A40
502290A4
AA6E0009
9026D009
5021B80D
503B4666
66918186
B50081A8
A0004A00
F001A000
68290000
0A900000
ENDCHAR
STARTCHAR C
ENCODING 67
SWIDTH 515 0
DWIDTH 16 0
BBX 17 24 0 -1
BITMAP
0190000000
061ABE5500
0500155600
0900140140
0500240140
03AA554200
064265AA00
0A42000000
0D66000000
0802000000
0805000000
0809000000
0808000000
1909000000
29A9000000
2408000000
2418001900
2019BAA600
6019200140
9014200140
6564200240
1E9016AA00
096AA90000
0290000000
ENDCHAR
STARTCHAR D
ENCODING 68
SWIDTH 520 0
DWIDTH 17 0
BBX 16 24 1 -1
BITMAP
05A80000
6B060000
59028000
2800A000
26401800
20900A00
60341940
A52D6090
A5664028
50209006
50202802
60200909
60201A6A
50206043
AA668019
902A9060
50382580
50300600
50200900
90206400
80208000
C0264000
6AE50000
00680000
ENDCHAR
STARTCHAR E
ENCODING 69
SWIDTH 490 0
DWIDTH 16 0
BBX 15 23 1 0
BITMAP
05400000
65AAEAA0
50148014
20208018
20208014
20356AA0
60255050
A5200000
A5640000
50296800
50254500
60200600
60200600
50254900
AA696800
90200000
50350000
503AAA90
50214420
90214020
80214020
C0296960
6A955580
ENDCHAR
STARTCHAR F
ENCODING 70
SWIDTH 475 0
DWIDTH 15 0
BBX 15 23 1 0
BITMAP
05400000
65AAEAA0
50148014
20208018
20208014
20356AA0
60255050
A5200000
A5640000
50296800
50254500
60200600
60200600
50254900
AA696800
90200000
50200000
50200000
50200000
90200000
80200000
C0240000
6A900000
ENDCHAR
STARTCHAR G
ENCODING 71
SWIDTH 557 0
DWIDTH 18 0
BBX 18 24 0 -1
BITMAP
0190000000
061ABE5500
0500155600
0900140140
0500240140
03AA554200
064265AA00
0A42000000
0D66000000
0802000400
080501AA40
0809020080
0808024080
1909014180
29A9014080
2408015580
2418029480
2019BB4080
6019218080
9014218080
6564214050
1E90164090
096AA9AA40
0290000000
ENDCHAR
STARTCHAR H
ENCODING 72
SWIDTH 611 0
DWIDTH 20 0
BBX 19 23 1 0
BITMAP
0540006900
6564065680
5014050080
2020020180
2020020140
2020020140
6020020140
A960065140
9564065980
5020020140
5020020240
60300206A0
503003A924
5025698014
AA6E508014
9022008164
5022006A90
50216B8240
503A460240
9030050140
8020090180
C024090240
6A9002A900
ENDCHAR
STARTCHAR I
ENCODING 73
SWIDTH 266 0
DWIDTH 9 0
BBX 7 23 1 0
BITMAP
0540
6564
5014
2020
2020
2020
6020
A960
9564
5020
5020
6020
5020
5020
AA64
9020
5020
5020
5020
9020
8020
C024
6A90
ENDCHAR
STARTCHAR J
ENCODING 74
SWIDTH 484 0
DWIDTH 16 0
BBX 16 24 -1 -1
BITMAP
00000150
00001A69
00001805
00000809
00000808
00000808
00001808
00001959
00002959
00001408
00001808
02801808
19501808
20201408
50082A95
64025409
09059408
02247808
01D02808
00900A08
00240248
00080209
00060BA4
0002A400
ENDCHAR
STARTCHAR K
ENCODING 75
SWIDTH 541 0
DWIDTH 17 0
BBX 17 24 1 -1
BITMAP
0540000000
65A400A400
5014015A00
2020020240
2020090080
2020640240
6021D00900
A522682400
A56A055000
5028018000
5030060000
60201E0000
6034220000
5028914000
AA65808000
9027865000
5038E42000
5030902000
5020601800
9020200900
8020140600
C024080900
6A900AA400
0000010000
ENDCHAR
STARTCHAR L
ENCODING 76
SWIDTH 467 0
DWIDTH 15 0
BBX 15 23 1 0
BITMAP
05400000
65640000
50140000
20200000
20200000
20200000
60200000
A9600000
95640000
50200000
50200000
60200000
50200000
50200000
AA640000
90200000
50200000
503FA6A0
50261524
90220018
80260018
C0255524
6A9A56A0
ENDCHAR
STARTCHAR M
ENCODING 77
SWIDTH 733 0
DWIDTH 23 0
BBX 24 23 0 0
BITMAP
001400015000
019A40096800
014090080600
0140E0080740
0241A0180940
020164240940
060254201580
0A9208BA1480
091609916480
080256803590
080742806550
080B02809050
080A4240A050
14098180A060
2A9880E8A030
20189951A564
201860622954
202420221414
602020291818
9020141D0808
802014090809
902018180806
2A900A900AA8
ENDCHAR
STARTCHAR N
ENCODING 78
SWIDTH 598 0
DWIDTH 19 0
BBX 17 23 1 0
BITMAP
0540001500
69B9019680
501A020080
2026014080
2022014080
2021814180
6020924080
A521635480
A56D235480
9020160080
50200A0180
60340B4140
6028034180
5029018080
AA6668E980
9023808080
5021805180
5020902140
5020601940
9020200A40
8020200980
C024196480
6A9006EA40
ENDCHAR
STARTCHAR O
ENCODING 79
SWIDTH 612 0
DWIDTH 20 0
BBX 19 24 0 -1
BITMAP
0190000000
061ABE6A40
05001556A0
0900140190
0500240190
03AA554290
064265AA50
0A42008420
0D6600EA60
080200C020
0805009020
0809005020
0808006020
1909006024
29A9006A98
2408006014
2418002664
2019BAA9A4
6019140074
9014080028
656408006C
1E9005AFF4
096AA90540
0290000000
ENDCHAR
STARTCHAR P
ENCODING 80
SWIDTH 513 0
DWIDTH 16 0
BBX 16 25 1 -1
BITMAP
00400000
06640000
2C0A9000
68006800
68002690
2940205A
25B85002
60265002
54206E09
AA6429AC
90219019
502B0028
50358190
50205600
50201800
A5206000
95664000
50380000
50300000
50200000
90200000
80200000
80240000
A5A00000
05400000
ENDCHAR
STARTCHAR Q
ENCODING 81
SWIDTH 612 0
DWIDTH 20 0
BBX 19 28 0 -5
BITMAP
0190000000
061ABE6A40
05001556A0
0900140190
0500240190
03AA554290
064265AA50
0A42008420
0D6600EA60
080200C020
0805009020
0809005020
0808006020
1909006024
29A9006A98
2408006014
2418002664
2019BAA9A4
6019140074
9014080028
656408006C
1E9005AFF4
096BAA8540
0292418000
0002008000
0002008000
0002968000
0000650000
ENDCHAR
STARTCHAR R
ENCODING 82
SWIDTH 532 0
DWIDTH 17 0
BBX 17 25 1 -1
BITMAP
0040000000
02A0000000
1D1A400000
6801780000
6800264000
2800206900
26A4500200
602A400200
5021A90500
BA641A9C00
9020A06900
5027401800
503AE99000
6022074000
5029020000
9426018000
AA66805000
9029862000
5034742400
5020200800
9020180600
8020090240
8020060200
9560025800
1A40005000
ENDCHAR
STARTCHAR S
ENCODING 83
SWIDTH 442 0
DWIDTH 14 0
BBX 14 24 0 -1
BITMAP
00051680
0AABA450
25820020
39620020
60211560
901AA540
24090000
08060000
09054000
02648000
02808000
01806000
00501800
00200900
0018A600
000A4200
00060180
006B4090
6A588020
80089020
80085090
8005BF40
66AA0000
14000000
ENDCHAR
STARTCHAR T
ENCODING 84
SWIDTH 453 0
DWIDTH 15 0
BBX 16 23 -1 0
BITMAP
09455014
25A9EA99
60009006
60009002
20004005
2AAEAEA8
04080800
00180800
002A5900
00295900
00140800
00180800
00180800
00140800
00154900
0029A900
00140800
00140800
00140800
00140800
00200800
00300900
001AA400
ENDCHAR
STARTCHAR U
ENCODING 85
SWIDTH 583 0
DWIDTH 19 0
BBX 18 24 0 -1
BITMAP
0050001400
065A029680
0902430080
0502020080
0906024180
0905014180
0805014080
1D55025480
1956029580
1809024080
0808014080
1808018080
1408008080
2508018090
269801AA60
2008018050
201800AD50
2019AA9290
2019600290
90182001A0
6018200260
1E9006EA20
091AA86A80
0290000000
ENDCHAR
STARTCHAR V
ENCODING 86
SWIDTH 506 0
DWIDTH 16 0
BBX 16 23 0 -1
BITMAP
06400050
656006A9
C0200502
90200502
20200905
20140808
20081808
26982A98
29092008
18052024
08062020
05026020
0602D020
0201EA60
03A48050
02008080
01814180
00820140
00860200
00990200
00964200
00A5E900
001A4000
ENDCHAR
STARTCHAR W
ENCODING 87
SWIDTH 735 0
DWIDTH 24 0
BBX 23 23 0 -1
BITMAP
1A4000000A90
656001402418
C0200A642408
902020142008
602034082014
202468082020
201898099020
2698E956EA60
29088B428020
140986028060
080582028090
090341418080
050241564080
0206A9E79080
03A601C25980
020202920180
014202620240
008506260200
008805290200
009805280200
008905180200
0097E40A5600
001900016400
ENDCHAR
STARTCHAR X
ENCODING 88
SWIDTH 483 0
DWIDTH 15 0
BBX 16 22 0 0
BITMAP
01900540
196009A0
60201418
90142008
24085028
08068060
05074080
022DA180
02980600
01980600
00B00800
00902900
01C06200
0264B640
02058180
09028080
18068060
60085018
80242009
80201408
64601828
1A900A90
ENDCHAR
STARTCHAR Y
ENCODING 89
SWIDTH 484 0
DWIDTH 16 0
BBX 18 22 -1 0
BITMAP
068000A900
2950014640
6020024090
9018020080
6009050240
0802480600
0605A90900
0264618800
01C0601800
0090902400
0024806000
000A408000
0007408000
0005658000
0008064000
0008060000
0024080000
0060180000
00C0240000
0090200000
0065600000
0006800000
ENDCHAR
STARTCHAR Z
ENCODING 90
SWIDTH 458 0
DWIDTH 15 0
BBX 16 22 -1 0
BITMAP
02AAEAA0
05008014
0800900D
0900801A
065A6AA9
0191D024
00028020
00026490
00060480
00080240
00180600
00600800
00A01400
01992000
02416000
06009000
0802EAA0
24068414
60089008
24088018
0A695A64
02959450
ENDCHAR
STARTCHAR bracketleft
ENCODING 91
SWIDTH 420 0
DWIDTH 13 0
BBX 13 27 0 -2
BITMAP
00000500
0005A640
02A50080
0BA40080
24080180
2409AA40
140D0000
14080000
14080000
20080000
3A980000
20080000
20080000
24180000
24180000
20080000
25480000
35580000
20080000
20180000
20140000
20190500
2009A580
60080080
25680080
07955080
01A55A40
ENDCHAR
STARTCHAR backslash
ENCODING 92
SWIDTH 453 0
DWIDTH 15 0
BBX 14 22 0 0
BITMAP
06A00000
28240000
60140000
60080000
18090000
08020000
05078000
02648000
02008000
01805000
00902000
00601400
00201C00
00219900
00150600
00080200
00060180
00020090
00014030
00008060
0000D680
00006900
ENDCHAR
STARTCHAR bracketright
ENCODING 93
SWIDTH 420 0
DWIDTH 13 0
BBX 13 27 0 -2
BITMAP
19000000
26940000
9016A400
8002AD00
50090200
1A990200
00190200
00060200
00060200
00050200
0009AB40
00050140
00060200
00020200
00020200
00060200
00051640
00059640
00060240
00020200
00020200
15160240
669A0140
90050080
80025640
51557800
2A559000
ENDCHAR
STARTCHAR asciicircum
ENCODING 94
SWIDTH 353 0
DWIDTH 11 0
BBX 11 8 0 13
BITMAP
00A900
024A00
020740
091880
143460
609824
208914
1A02A0
ENDCHAR
STARTCHAR underscore
ENCODING 95
SWIDTH 499 0
DWIDTH 16 0
BBX 14 7 1 -9
BITMAP
19554140
6597A980
90020050
90020060
50010050
26AAAA80
04010000
ENDCHAR
STARTCHAR grave
ENCODING 96
SWIDTH 183 0
DWIDTH 6 0
BBX 6 7 0 24
BITMAP
2A40
9140
9080
2080
1450
0820
0680
ENDCHAR
STARTCHAR a
ENCODING 97
SWIDTH 507 0
DWIDTH 16 0
BBX 17 23 0 0
BITMAP
0015000000
00AA900000
0080200000
00803A0000
0080920000
0180820000
0240820000
03A0814000
0619808000
0601998000
0502A09000
0902505000
0805205500
180575B600
1A97A50180
2419200080
2408200080
2014106A40
20255A5900
902A590500
8020050200
9020050600
1A9006A400
ENDCHAR
STARTCHAR b
ENCODING 98
SWIDTH 533 0
DWIDTH 17 0
BBX 16 25 1 -1
BITMAP
01900000
0A290000
6C06A400
68002900
280021A5
2A906006
20794002
6022A402
A9602A49
956690BD
502A0018
502181A4
60208600
50202A40
502290A4
AA6E0009
9026D009
5021B80D
503B4666
66918186
B50081A8
A0004A00
F001A000
68290000
0A900000
ENDCHAR
STARTCHAR c
ENCODING 99
SWIDTH 515 0
DWIDTH 16 0
BBX 17 24 0 -1
BITMAP
0190000000
061ABE5500
0500155600
0900140140
0500240140
03AA554200
064265AA00
0A42000000
0D66000000
0802000000
0805000000
0809000000
0808000000
1909000000
29A9000000
2408000000
2418001900
2019BAA600
6019200140
9014200140
6564200240
1E9016AA00
096AA90000
0290000000
ENDCHAR
STARTCHAR d
ENCODING 100
SWIDTH 520 0
DWIDTH 17 0
BBX 16 24 1 -1
BITMAP
05A80000
6B060000
59028000
2800A000
26401800
20900A00
60341940
A52D6090
A5664028
50209006
50202802
60200909
60201A6A
50206043
AA668019
902A9060
50382580
50300600
50200900
90206400
80208000
C0264000
6AE50000
00680000
ENDCHAR
STARTCHAR e
ENCODING 101
SWIDTH 490 0
DWIDTH 16 0
BBX 15 23 1 0
BITMAP
05400000
65AAEAA0
50148014
20208018
20208014
20356AA0
60255050
A5200000
A5640000
50296800
50254500
60200600
60200600
50254900
AA696800
90200000
50350000
503AAA90
50214420
90214020
80214020
C0296960
6A955580
ENDCHAR
STARTCHAR f
ENCODING 102
SWIDTH 475 0
DWIDTH 15 0
BBX 15 23 1 0
BITMAP
05400000
65AAEAA0
50148014
20208018
20208014
20356AA0
60255050
A5200000
A5640000
50296800
50254500
60200600
60200600
50254900
AA696800
90200000
50200000
50200000
50200000
90200000
80200000
C0240000
6A900000
ENDCHAR
STARTCHAR g
ENCODING 103
SWIDTH 557 0
DWIDTH 18 0
BBX 18 24 0 -1
BITMAP
0190000000
061ABE5500
0500155600
0900140140
0500240140
03AA554200
064265AA00
0A42000000
0D66000000
0802000400
080501AA40
0809020080
0808024080
1909014180
29A9014080
2408015580
2418029480
2019BB4080
6019218080
9014218080
6564214050
1E90164090
096AA9AA40
0290000000
ENDCHAR
STARTCHAR h
ENCODING 104
SWIDTH 611 0
DWIDTH 20 0
BBX 19 23 1 0
BITMAP
0540006900
6564065680
5014050080
2020020180
2020020140
2020020140
6020020140
A960065140
9564065980
5020020140
5020020240
60300206A0
503003A924
5025698014
AA6E508014
9022008164
5022006A90
50216B8240
503A460240
9030050140
8020090180
C024090240
6A9002A900
ENDCHAR
STARTCHAR i
ENCODING 105
SWIDTH 266 0
DWIDTH 9 0
BBX 7 23 1 0
BITMAP
0540
6564
5014
2020
2020
2020
6020
A960
9564
5020
5020
6020
5020
5020
AA64
9020
5020
5020
5020
9020
8020
C024
6A90
ENDCHAR
STARTCHAR j
ENCODING 106
SWIDTH 482 0
DWIDTH 15 0
BBX 16 24 -1 -1
BITMAP
00000150
00001A69
00001805
00000809
00000808
00000808
00001808
00001959
00002959
00001408
00001808
02801808
19501808
20201408
50082A95
64025409
09059408
02247808
01D02808
00900A08
00240248
00080209
00060BA4
0002A400
ENDCHAR
STARTCHAR k
ENCODING 107
SWIDTH 541 0
DWIDTH 17 0
BBX 17 24 1 -1
BITMAP
0540000000
65A400A400
5014015A00
2020020240
2020090080
2020640240
6021D00900
A522682400
A56A055000
5028018000
5030060000
60201E0000
6034220000
5028914000
AA65808000
9027865000
5038E42000
5030902000
5020601800
9020200900
8020140600
C024080900
6A900AA400
0000010000
ENDCHAR
STARTCHAR l
ENCODING 108
SWIDTH 467 0
DWIDTH 15 0
BBX 15 23 1 0
BITMAP
05400000
65640000
50140000
20200000
20200000
20200000
60200000
A9600000
95640000
50200000
50200000
60200000
50200000
50200000
AA640000
90200000
50200000
503FA6A0
50261524
90220018
80260018
C0255524
6A9A56A0
ENDCHAR
STARTCHAR m
ENCODING 109
SWIDTH 733 0
DWIDTH 23 0
BBX 24 23 0 0
BITMAP
001400015000
019A40096800
014090080600
0140E0080740
0241A0180940
020164240940
060254201580
0A9208BA1480
091609916480
080256803590
080742806550
080B02809050
080A4240A050
14098180A060
2A9880E8A030
20189951A564
201860622954
202420221414
602020291818
9020141D0808
802014090809
902018180806
2A900A900AA8
ENDCHAR
STARTCHAR n
ENCODING 110
SWIDTH 598 0
DWIDTH 19 0
BBX 17 23 1 0
BITMAP
0540001500
69B9019680
501A020080
2026014080
2022014080
2021814180
6020924080
A521635480
A56D235480
9020160080
50200A0180
60340B4140
6028034180
5029018080
AA6668E980
9023808080
5021805180
5020902140
5020601940
9020200A40
8020200980
C024196480
6A9006EA40
ENDCHAR
STARTCHAR o
ENCODING 111
SWIDTH 612 0
DWIDTH 20 0
BBX 19 24 0 -1
BITMAP
0190000000
061ABE6A40
05001556A0
0900140190
0500240190
03AA554290
064265AA50
0A42008420
0D6600EA60
080200C020
0805009020
0809005020
0808006020
1909006024
29A9006A98
2408006014
2418002664
2019BAA9A4
6019140074
9014080028
656408006C
1E9005AFF4
096AA90540
0290000000
ENDCHAR
STARTCHAR p
ENCODING 112
SWIDTH 513 0
DWIDTH 16 0
BBX 16 25 1 -1
BITMAP
00400000
06640000
2C0A9000
68006800
68002690
2940205A
25B85002
60265002
54206E09
AA6429AC
90219019
502B0028
50358190
50205600
50201800
A5206000
95664000
50380000
50300000
50200000
90200000
80200000
80240000
A5A00000
05400000
ENDCHAR
STARTCHAR q
ENCODING 113
SWIDTH 612 0
DWIDTH 20 0
BBX 19 28 0 -5
BITMAP
0190000000
061ABE6A40
05001556A0
0900140190
0500240190
03AA554290
064265AA50
0A42008420
0D6600EA60
080200C020
0805009020
0809005020
0808006020
1909006024
29A9006A98
2408006014
2418002664
2019BAA9A4
6019140074
9014080028
656408006C
1E9005AFF4
096BAA8540
0292418000
0002008000
0002008000
0002968000
0000650000
ENDCHAR
STARTCHAR r
ENCODING 114
SWIDTH 532 0
DWIDTH 17 0
BBX 17 25 1 -1
BITMAP
0040000000
02A0000000
1D1A400000
6801780000
6800264000
2800206900
26A4500200
602A400200
5021A90500
BA641A9C00
9020A06900
5027401800
503AE99000
6022074000
5029020000
9426018000
AA66805000
9029862000
5034742400
5020200800
9020180600
8020090240
8020060200
9560025800
1A40005000
ENDCHAR
STARTCHAR s
ENCODING 115
SWIDTH 442 0
DWIDTH 14 0
BBX 14 24 0 -1
BITMAP
00051680
0AABA450
25820020
39620020
60211560
901AA540
24090000
08060000
09054000
02648000
02808000
01806000
00501800
00200900
0018A600
000A4200
00060180
006B4090
6A588020
80089020
80085090
8005BF40
66AA0000
14000000
ENDCHAR
STARTCHAR t
ENCODING 116
SWIDTH 453 0
DWIDTH 15 0
BBX 16 23 -1 0
BITMAP
09455014
25A9EA99
60009006
60009002
20004005
2AAEAEA8
04080800
00180800
002A5900
00295900
00140800
00180800
00180800
00140800
00154900
0029A900
00140800
00140800
00140800
00140800
00200800
00300900
001AA400
ENDCHAR
STARTCHAR u
ENCODING 117
SWIDTH 583 0
DWIDTH 19 0
BBX 18 24 0 -1
BITMAP
0050001400
065A029680
0902430080
0502020080
0906024180
0905014180
0805014080
1D55025480
1956029580
1809024080
0808014080
1808018080
1408008080
2508018090
269801AA60
2008018050
201800AD50
2019AA9290
2019600290
90182001A0
6018200260
1E9006EA20
091AA86A80
0290000000
ENDCHAR
STARTCHAR v
ENCODING 118
SWIDTH 506 0
DWIDTH 16 0
BBX 16 23 0 -1
BITMAP
06400050
656006A9
C0200502
90200502
20200905
20140808
20081808
26982A98
29092008
18052024
08062020
05026020
0602D020
0201EA60
03A48050
02008080
01814180
00820140
00860200
00990200
00964200
00A5E900
001A4000
ENDCHAR
STARTCHAR w
ENCODING 119
SWIDTH 735 0
DWIDTH 24 0
BBX 23 23 0 -1
BITMAP
1A4000000A90
656001402418
C0200A642408
902020142008
602034082014
202468082020
201898099020
2698E956EA60
29088B428020
140986028060
080582028090
090341418080
050241564080
0206A9E79080
03A601C25980
020202920180
014202620240
008506260200
008805290200
009805280200
008905180200
0097E40A5600
001900016400
ENDCHAR
STARTCHAR x
ENCODING 120
SWIDTH 483 0
DWIDTH 15 0
BBX 16 22 0 0
BITMAP
01900540
196009A0
60201418
90142008
24085028
08068060
05074080
022DA180
02980600
01980600
00B00800
00902900
01C06200
0264B640
02058180
09028080
18068060
60085018
80242009
80201408
64601828
1A900A90
ENDCHAR
STARTCHAR y
ENCODING 121
SWIDTH 484 0
DWIDTH 16 0
BBX 18 22 -1 0
BITMAP
068000A900
2950014640
6020024090
9018020080
6009050240
0802480600
0605A90900
0264618800
01C0601800
0090902400
0024806000
000A408000
0007408000
0005658000
0008064000
0008060000
0024080000
0060180000
00C0240000
0090200000
0065600000
0006800000
ENDCHAR
STARTCHAR z
ENCODING 122
SWIDTH 458 0
DWIDTH 15 0
BBX 16 22 -1 0
BITMAP
02AAEAA0
05008014
0800900D
0900801A
065A6AA9
0191D024
00028020
00026490
00060480
00080240
00180600
00600800
00A01400
01992000
02416000
06009000
0802EAA0
24068414
60089008
24088018
0A695A64
02959450
ENDCHAR
STARTCHAR braceleft
ENCODING 123
SWIDTH 473 0
DWIDTH 15 0
BBX 15 27 0 -2
BITMAP
00000040
00055A60
00A5D018
02408008
02408018
00806AA0
00502400
006A5400
00741800
00200800
14184500
96AA9200
80002200
80003900
80006900
6AAE8200
00140900
00301800
00AA1400
00806000
00806000
01409000
06009AA4
06014018
02414018
006F9424
000456A0
ENDCHAR
STARTCHAR bar
ENCODING 124
SWIDTH 263 0
DWIDTH 8 0
BBX 7 27 1 -2
BITMAP
0540
7AA0
5014
6024
2020
2020
6020
6020
A520
A564
9020
5020
5020
6020
5020
5020
AA64
9560
5020
5020
5020
5020
9020
8020
C024
65A0
1540
ENDCHAR
STARTCHAR braceright
ENCODING 125
SWIDTH 473 0
DWIDTH 15 0
BBX 16 27 0 -2
BITMAP
04000000
26955000
501A6800
90080600
50080600
2AA80800
00300800
00669400
00507400
00802000
01805050
021AAA58
02240009
01B00009
01A40008
024AEAA4
00805000
00502400
0022A800
00250800
00240800
00180600
2A990240
50050140
50060600
605BF400
2A544000
ENDCHAR
STARTCHAR asciitilde
ENCODING 126
SWIDTH 456 0
DWIDTH 15 0
BBX 14 8 0 8
BITMAP
00AD0A80
024B1420
060A6060
0818A080
24746240
60881A00
21451D00
1A02B800
ENDCHAR
STARTCHAR nonbreakingspace
ENCODING 160
SWIDTH 200 0
DWIDTH 6 0
BBX 1 1 0 0
BITMAP
00
ENDCHAR
STARTCHAR exclamdown
ENCODING 161
SWIDTH 259 0
DWIDTH 8 0
BBX 6 23 1 -1
BITMAP
1A90
2020
2020
2020
1A90
0000
1A40
6460
5020
2020
2020
6020
5020
9020
9AB0
9020
5020
5020
9020
8020
8020
A5A0
1540
ENDCHAR
STARTCHAR cent
ENCODING 162
SWIDTH 480 0
DWIDTH 15 0
BBX 15 29 0 -4
BITMAP
000AA400
00140800
00140800
00180800
00081A80
00096D60
001E9024
06A49018
19005014
280016A0
2501A800
22490000
20B40000
25540000
35580000
20140000
20240000
20190000
2019B400
60082A50
2AA42064
07908018
005E0014
0009A820
00181A90
00141400
00141400
00241800
000AA000
ENDCHAR
STARTCHAR sterling
ENCODING 163
SWIDTH 594 0
DWIDTH 19 0
BBX 19 22 0 0
BITMAP
0002900000
00091A4000
002C01AA00
0068000240
0028000240
0026A50200
0020269600
0020241800
05BA944000
26902AA000
6060202400
5020202400
6020202000
26A02AA000
057A944000
0050240000
00602BAAA0
0060220020
0050220024
0090260024
0090296A60
002AA65150
ENDCHAR
STARTCHAR currency
ENCODING 164
SWIDTH 640 0
DWIDTH 20 0
BBX 19 18 1 3
BITMAP
1A00000680
A081A40860
80621E6014
8029209018
A064902060
18A8800A40
0346640F40
0A016924A0
240182A020
2007028014
24094B4060
0924A86180
0AE0191340
64A0050990
8018082418
806660A018
9081D15820
2A406B0690
ENDCHAR
STARTCHAR yen
ENCODING 165
SWIDTH 575 0
DWIDTH 18 0
BBX 18 22 0 0
BITMAP
0140006400
0AA0009680
2420008090
6018014060
2409020080
0802860240
02019D0200
01593A9500
00E0201900
00A0201800
0064602400
02AEBABD00
0600240200
0500140200
0500140200
0215555600
01A96A5800
0024080000
0060080000
0090140000
0024240000
000AA00000
ENDCHAR
STARTCHAR brokenbar
ENCODING 166
SWIDTH 258 0
DWIDTH 8 0
BBX 6 29 1 -4
BITMAP
6A90
9030
5020
5020
5020
AA20
9120
8020
5020
5020
8020
8020
6A90
0000
0000
2A80
9070
5020
5020
5020
9520
A560
8020
5020
5020
8020
8020
65A0
0500
ENDCHAR
STARTCHAR section
ENCODING 167
SWIDTH 474 0
DWIDTH 15 0
BBX 14 24 1 -1
BITMAP
00055A00
6AAA9140
80050080
80050080
AA011580
A1AA9600
80099000
80141A40
69202A80
09905080
081A8090
20218180
50220200
906A0600
A599A900
95540640
6A500080
00A50080
6A9A9280
80052980
80050080
80016A40
66AA5500
14000000
ENDCHAR
STARTCHAR dieresis
ENCODING 168
SWIDTH 351 0
DWIDTH 11 0
BBX 11 5 0 24
BITMAP
6A86A4
808808
508808
508818
2A46A4
ENDCHAR
STARTCHAR copyright
ENCODING 169
SWIDTH 719 0
DWIDTH 23 0
BBX 21 25 1 -1
BITMAP
010000000000
0AAAEABA6900
240080156B00
A40080149580
685455518080
5A96A5A99080
508000005080
5081AAA05080
948200249480
A5870424E580
8086BAA08080
508620008140
518220009140
508620008180
948525509480
958529609580
8086A0208080
9180EAA08140
814000008140
809655909580
8096556A9880
918200100980
3A0100500A00
2AAAAAAA9800
000000001000
ENDCHAR
STARTCHAR ordfeminine
ENCODING 170
SWIDTH 455 0
DWIDTH 15 0
BBX 16 22 -1 0
BITMAP
002BAA00
00660140
00590140
00920180
00824080
01818090
02408060
07A1C6A0
0505D520
09026020
09AAB014
1A001408
22000809
615AAC02
24580809
0AA406A4
00500100
015AA980
02000050
02000050
02000090
01AAAA80
ENDCHAR
STARTCHAR guillemotleft
ENCODING 171
SWIDTH 689 0
DWIDTH 22 0
BBX 21 15 0 4
BITMAP
000100001400
000990006600
002424018180
0190140A0080
190024A40180
200192400A00
600902006400
30240181C000
299802A66000
214242441800
190060A00280
028014190080
006024024180
0018A0009640
000640002800
ENDCHAR
STARTCHAR logicalnot
ENCODING 172
SWIDTH 591 0
DWIDTH 19 0
BBX 18 13 0 1
BITMAP
0400000000
2AAABAAA00
2000200680
60002065A0
6000209020
2159569020
1A55655060
0000002050
0000006050
0000005050
0000005050
0000009060
0000002A80
ENDCHAR
STARTCHAR uni00AD
ENCODING 173
SWIDTH 465 0
DWIDTH 15 0
BBX 14 7 0 7
BITMAP
09564140
2596AA60
20014020
60014020
20014020
2AAAAA90
05000040
ENDCHAR
STARTCHAR registered
ENCODING 174
SWIDTH 719 0
DWIDTH 23 0
BBX 21 25 1 -1
BITMAP
010000000000
0AAAEABA6900
240080156B00
A40080149580
685455518080
5A96A5A99080
508000005080
508010005080
9482DA509480
A5858068E580
8085A4148080
508626A08140
518220109140
508220008180
948220009480
958624009580
808524008080
9186A4008140
814040008140
809655909580
8096556A9880
918200100980
3A0100500A00
2AAAAAAA9800
000000001000
ENDCHAR
STARTCHAR macron
ENCODING 175
SWIDTH 263 0
DWIDTH 8 0
BBX 9 4 0 24
BITMAP
6AAA00
800140
800140
6AAA00
ENDCHAR
STARTCHAR degree
ENCODING 176
SWIDTH 333 0
DWIDTH 11 0
BBX 10 10 0 12
BITMAP
014100
02AA40
081480
182490
60A820
519820
2A5660
200160
255590
055540
ENDCHAR
STARTCHAR plusminus
ENCODING 177
SWIDTH 464 0
DWIDTH 15 0
BBX 14 22 0 -4
BITMAP
00014000
001AA000
00201400
00201400
05212040
26AAAA90
20014020
60014020
20014020
25A9AAA0
09216040
00202000
00202000
0029A000
00054000
05010040
26AAAA90
20014020
60014020
20014020
25A96AA0
09414140
ENDCHAR
STARTCHAR twosuperior
ENCODING 178
SWIDTH 324 0
DWIDTH 10 0
BBX 10 12 0 10
BITMAP
2AAA40
500080
500080
26A580
048180
020200
050800
081400
202A90
205020
2A8020
0AAA90
ENDCHAR
STARTCHAR threesuperior
ENCODING 179
SWIDTH 332 0
DWIDTH 11 0
BBX 10 13 0 9
BITMAP
2AAA40
500090
5000A0
26A590
056550
021410
021410
016420
1AA020
202420
200690
146940
050000
ENDCHAR
STARTCHAR acute
ENCODING 180
SWIDTH 202 0
DWIDTH 6 0
BBX 7 7 0 24
BITMAP
0290
0920
0824
2460
9180
8200
6900
ENDCHAR
STARTCHAR mu
ENCODING 181
SWIDTH 582 0
DWIDTH 19 0
BBX 17 26 1 -4
BITMAP
0AA006A900
3418180600
2008080500
2018080500
2414080500
2014080500
2014080200
30140EA600
7958080200
6558090200
2014050200
2024050200
2020050200
2020065540
2020065540
6020066200
695A5B5A00
655A900A00
5021800A40
6020800980
502046A880
503AA65640
9020005400
8020000000
C024000000
6A90000000
ENDCHAR
STARTCHAR paragraph
ENCODING 182
SWIDTH 556 0
DWIDTH 18 0
BBX 17 25 0 -1
BITMAP
0000014000
00000AA000
0005A42900
001D001A40
0599001940
7906006600
50021B5200
6001A60200
2069450200
2A990BA640
2502890200
1900B90200
02818E0200
0062060200
0018050200
0006465240
00009A6640
0000290200
0000090200
0000050200
0000050200
0000080200
0000080240
00000A5600
000001A400
ENDCHAR
STARTCHAR periodcentered
ENCODING 183
SWIDTH 215 0
DWIDTH 7 0
BBX 5 6 1 9
BITMAP
0400
A680
8080
8080
8080
6A40
ENDCHAR
STARTCHAR cedilla
ENCODING 184
SWIDTH 237 0
DWIDTH 8 0
BBX 8 10 0 -7
BITMAP
0064
0199
0145
0185
0145
0645
A999
8018
82A4
6900
ENDCHAR
STARTCHAR onesuperior
ENCODING 185
SWIDTH 286 0
DWIDTH 9 0
BBX 9 14 0 9
BITMAP
001000
009900
020200
180200
901A00
809200
528200
198200
008200
008200
008200
004140
009600
001400
ENDCHAR
STARTCHAR ordmasculine
ENCODING 186
SWIDTH 476 0
DWIDTH 15 0
BBX 14 22 1 0
BITMAP
6AAFAA40
80061080
80021A90
80026590
D1518020
AAAA9050
80805050
80805080
80805080
80858180
80ABAAD0
90820090
EA420090
80010080
66A5A980
15050100
06400000
196AA800
20000600
20000200
14000500
0AAAA800
ENDCHAR
STARTCHAR guillemotright
ENCODING 187
SWIDTH 689 0
DWIDTH 22 0
BBX 21 15 1 4
BITMAP
050000100000
264001980000
909002060000
801805009000
900686001900
280061900240
024020180140
0090A0060300
0266A0099A40
090420605240
600282401900
80190500A000
906002024000
258002890000
0A0000640000
ENDCHAR
STARTCHAR onequarter
ENCODING 188
SWIDTH 790 0
DWIDTH 25 0
BBX 25 23 0 0
BITMAP
00140000000000
00660010000000
0142419A000000
19014141400000
60098142000000
50608202000000
21904205000000
0A514508000000
00514A98000000
00504808000000
00408808004000
00808814026400
00665420050800
00041420146A00
00002920508140
00002161408140
00002055029500
00005085055A00
00008083940600
00008082550A00
0001408095A540
0000A640008140
00000400006A00
ENDCHAR
STARTCHAR onehalf
ENCODING 189
SWIDTH 771 0
DWIDTH 25 0
BBX 24 24 0 -1
BITMAP
001400000000
006600100000
0142419A0000
190141414000
600981420000
506082020000
219042050000
0A5145080000
00514A980000
005048080000
004088080000
00808815A964
006654220008
000414220005
000029225548
00002160595C
000020501414
000050802050
000080808080
0000808241A9
000140820202
0000A6419902
00000400AA95
000000000004
ENDCHAR
STARTCHAR threequarters
ENCODING 190
SWIDTH 817 0
DWIDTH 26 0
BBX 26 22 0 0
BITMAP
2AAA4005000000
50009066800000
5000A050500000
26A5A050800000
05651080800000
02041081400000
02141141000000
016422A6000000
0AA42202000000
20142202001000
20069205009900
14694208014200
06000508051A80
00000A48142050
00000858603050
0000081540A550
00001420815680
00002020E60180
00002020954290
00006020256950
00001990002010
00000100001A80
ENDCHAR
STARTCHAR questiondown
ENCODING 191
SWIDTH 455 0
DWIDTH 15 0
BBX 14 24 0 -1
BITMAP
00006400
00025600
00020200
00020200
00024600
00006400
00001000
0002A900
00050200
00020200
00078200
00186200
00A01A00
06401C00
65006400
6A869000
306A4000
20016940
60080590
29080020
05A80020
001A9050
00002980
00000500
ENDCHAR
STARTCHAR Agrave
ENCODING 192
SWIDTH 507 0
DWIDTH 16 0
BBX 17 30 0 0
BITMAP
002A000000
0091400000
0081800000
0020800000
0014500000
0008600000
0006800000
0015000000
00AA900000
0080200000
00803A0000
0080920000
0180820000
0240820000
03A0814000
0619808000
0601998000
0502A09000
0902505000
0805205500
180575B600
1A97A50180
2419200080
2408200080
2014106A40
20255A5900
902A590500
8020050200
9020050600
1A9006A400
ENDCHAR
STARTCHAR Aacute
ENCODING 193
SWIDTH 507 0
DWIDTH 16 0
BBX 17 30 0 0
BITMAP
00000A4000
0000085000
0000242000
0000608000
0000820000
0001490000
0000A80000
0015000000
00AA900000
0080200000
00803A0000
0080920000
0180820000
0240820000
03A0814000
0619808000
0601998000
0502A09000
0902505000
0805205500
180575B600
1A97A50180
2419200080
2408200080
2014106A40
20255A5900
902A590500
8020050200
9020050600
1A9006A400
ENDCHAR
STARTCHAR Acircumflex
ENCODING 194
SWIDTH 507 0
DWIDTH 16 0
BBX 17 31 0 0
BITMAP
0006A00000
0008380000
0024280000
0060960000
0081C24000
0242508000
0188208000
00681A4000
0015000000
00AA900000
0080200000
00803A0000
0080920000
0180820000
0240820000
03A0814000
0619808000
0601998000
0502A09000
0902505000
0805205500
180575B600
1A97A50180
2419200080
2408200080
2014106A40
20255A5900
902A590500
8020050200
9020050600
1A9006A400
ENDCHAR
STARTCHAR Atilde
ENCODING 195
SWIDTH 507 0
DWIDTH 16 0
BBX 17 31 0 0
BITMAP
002A82A400
0061D20800
0081A50800
0242182400
060A086000
0816428000
0920828000
0290AA0000
0015000000
00AA900000
0080200000
00803A0000
0080920000
0180820000
0240820000
03A0814000
0619808000
0601998000
0502A09000
0902505000
0805205500
180575B600
1A97A50180
2419200080
2408200080
2014106A40
20255A5900
902A590500
8020050200
9020050600
1A9006A400
ENDCHAR
STARTCHAR Adieresis
ENCODING 196
SWIDTH 507 0
DWIDTH 16 0
BBX 17 29 0 0
BITMAP
01AA1A9000
0202202000
0202205000
0246205000
01A91A8000
0000000000
0015000000
00AA900000
0080200000
00803A0000
0080920000
0180820000
0240820000
03A0814000
0619808000
0601998000
0502A09000
0902505000
0805205500
180575B600
1A97A50180
2419200080
2408200080
2014106A40
20255A5900
902A590500
8020050200
9020050600
1A9006A400
ENDCHAR
STARTCHAR Aring
ENCODING 197
SWIDTH 507 0
DWIDTH 16 0
BBX 17 32 0 0
BITMAP
000AA90000
0024520000
0060520000
0081908000
0142209000
009AA98000
00900A8000
0095514000
00255A0000
0015000000
00AA900000
0080200000
00803A0000
0080920000
0180820000
0240820000
03A0814000
0619808000
0601998000
0502A09000
0902505000
0805205500
180575B600
1A97A50180
2419200080
2408200080
2014106A40
20255A5900
902A590500
8020050200
9020050600
1A9006A400
ENDCHAR
STARTCHAR AE
ENCODING 198
SWIDTH 797 0
DWIDTH 26 0
BBX 27 23 -1 0
BITMAP
00000005400000
00001565AAEAA0
000026D0248024
00002020208014
00009018208014
00008020356A60
00024090355050
000A01E5200000
0009A2D5600000
00181680396800
00240950254900
00201850200500
00902050200500
01C07590254800
026855EA656800
02058080200000
09018090250000
18036A907BAA90
20094090614420
90080080214020
60140080220020
29240080396560
0690006A955680
ENDCHAR
STARTCHAR Ccedilla
ENCODING 199
SWIDTH 515 0
DWIDTH 16 0
BBX 17 30 0 -7
BITMAP
0190000000
061ABE5500
0500155600
0900140140
0500240140
03AA554200
064265AA00
0A42000000
0D66000000
0802000000
0805000000
0809000000
0808000000
1909000000
29A9000000
2408000000
2418001900
2019BAA600
6019200140
9014200140
6564200240
1E9016AA00
096AEA0000
0290820000
0000820000
0001820000
0069AA0000
0050190000
0061A40000
0029000000
ENDCHAR
STARTCHAR Egrave
ENCODING 200
SWIDTH 490 0
DWIDTH 16 0
BBX 15 31 1 0
BITMAP
006A0000
01820000
01820000
00914000
00208000
00148000
000A4000
00000000
05400000
65AAEAA0
50148014
20208018
20208014
20356AA0
60255050
A5200000
A5640000
50296800
50254500
60200600
60200600
50254900
AA696800
90200000
50350000
503AAA90
50214420
90214020
80214020
C0296960
6A955580
ENDCHAR
STARTCHAR Eacute
ENCODING 201
SWIDTH 490 0
DWIDTH 16 0
BBX 15 31 1 0
BITMAP
0000A400
00008500
00020200
00060800
00182000
00149000
000A8000
00000000
05400000
65AAEAA0
50148014
20208018
20208014
20356AA0
60255050
A5200000
A5640000
50296800
50254500
60200600
60200600
50254900
AA696800
90200000
50350000
503AAA90
50214420
90214020
80214020
C0296960
6A955580
ENDCHAR
STARTCHAR Ecircumflex
ENCODING 202
SWIDTH 490 0
DWIDTH 16 0
BBX 15 31 1 0
BITMAP
002A8000
0020D000
0090A000
01821800
020A0900
08094200
05208200
02A06900
05400000
65AAEAA0
50148014
20208018
20208014
20356AA0
60255050
A5200000
A5640000
50296800
50254500
60200600
60200600
50254900
AA696800
90200000
50350000
503AAA90
50214420
90214020
80214020
C0296960
6A955580
ENDCHAR
STARTCHAR Edieresis
ENCODING 203
SWIDTH 490 0
DWIDTH 16 0
BBX 15 29 1 0
BITMAP
06A46A00
18088180
08188140
08148200
06A46A00
00000000
05400000
65AAEAA0
50148014
20208018
20208014
20356AA0
60255050
A5200000
A5640000
50296800
50254500
60200600
60200600
50254900
AA696800
90200000
50350000
503AAA90
50214420
90214020
80214020
C0296960
6A955580
ENDCHAR
STARTCHAR Igrave
ENCODING 204
SWIDTH 266 0
DWIDTH 9 0
BBX 8 31 0 0
BITMAP
2B00
8240
8140
2080
1450
0860
0680
0000
0150
1959
1405
0808
0808
0808
1808
2A58
2559
1408
1408
1808
1408
1408
2A99
2408
1408
1408
1408
2408
2008
3009
1AA4
ENDCHAR
STARTCHAR Iacute
ENCODING 205
SWIDTH 266 0
DWIDTH 9 0
BBX 9 31 1 0
BITMAP
002900
005240
008180
024600
060800
092000
029000
000000
054000
656400
501400
202000
202000
202000
602000
A96000
956400
502000
502000
602000
502000
502000
AA6400
902000
502000
502000
502000
902000
802000
C02400
6A9000
ENDCHAR
STARTCHAR Icircumflex
ENCODING 206
SWIDTH 266 0
DWIDTH 9 0
BBX 10 32 0 0
BITMAP
02B400
091C00
081900
246200
90D080
826060
821450
280A80
000000
015000
195900
140500
080800
080800
080800
180800
2A5800
255900
140800
140800
180800
140800
140800
2A9900
240800
140800
140800
140800
240800
200800
300900
1AA400
ENDCHAR
STARTCHAR Idieresis
ENCODING 207
SWIDTH 266 0
DWIDTH 9 0
BBX 11 29 -1 0
BITMAP
6A86A4
C0880C
908808
508814
6A46A0
000000
005400
065640
050140
020200
020200
020200
060200
0A9600
095640
050200
050200
060200
050200
050200
0AA640
090200
050200
050200
050200
090200
080200
0C0240
06A900
ENDCHAR
STARTCHAR Eth
ENCODING 208
SWIDTH 669 0
DWIDTH 21 0
BBX 23 25 -1 -1
BITMAP
000000400000
00001AA00000
0001A8140000
000260090000
000160024000
0001A800A000
000146403800
000140D09900
000254E24240
000355980090
2A96A0864018
600518809018
500009802424
5000088069A8
26AA64818518
0503F98A0064
000200AA4180
000240E08600
000241801800
000201806400
000200818000
000200860000
000600C80000
0001AB640000
000001900000
ENDCHAR
STARTCHAR Ntilde
ENCODING 209
SWIDTH 598 0
DWIDTH 19 0
BBX 17 31 1 0
BITMAP
000AA06900
0018348200
0020694200
0050860900
0182821800
020590A000
024820A000
00A42A9000
0540001500
69B9019680
501A020080
2026014080
2022014080
2021814180
6020924080
A521635480
A56D235480
9020160080
50200A0180
60340B4140
6028034180
5029018080
AA6668E980
9023808080
5021805180
5020902140
5020601940
9020200A40
8020200980
C024196480
6A9006EA40
ENDCHAR
STARTCHAR Ograve
ENCODING 210
SWIDTH 612 0
DWIDTH 20 0
BBX 19 32 0 -1
BITMAP
0001A80000
0006080000
0006080000
0002450000
0000820000
0000520000
0000290000
0000000000
0190000000
061ABE6A40
05001556A0
0900140190
0500240190
03AA554290
064265AA50
0A42008420
0D6600EA60
080200C020
0805009020
0809005020
0808006020
1909006024
29A9006A98
2408006014
2418002664
2019BAA9A4
6019140074
9014080028
656408006C
1E9005AFF4
096AA90540
0290000000
ENDCHAR
STARTCHAR Oacute
ENCODING 211
SWIDTH 612 0
DWIDTH 20 0
BBX 19 32 0 -1
BITMAP
000000A400
0000024800
0000020900
0000082400
0000245000
0000208000
00001A0000
0000000000
0190000000
061ABE6A40
05001556A0
0900140190
0500240190
03AA554290
064265AA50
0A42008420
0D6600EA60
080200C020
0805009020
0809005020
0808006020
1909006024
29A9006A98
2408006014
2418002664
2019BAA9A4
6019140074
9014080028
656408006C
1E9005AFF4
096AA90540
0290000000
ENDCHAR
STARTCHAR Ocircumflex
ENCODING 212
SWIDTH 612 0
DWIDTH 20 0
BBX 19 32 0 -1
BITMAP
00006A0000
0000838000
0002428000
0006096000
00081C2400
0024250800
0018920800
000681A400
0190000000
061ABE6A40
05001556A0
0900140190
0500240190
03AA554290
064265AA50
0A42008420
0D6600EA60
080200C020
0805009020
0809005020
0808006020
1909006024
29A9006A98
2408006014
2418002664
2019BAA9A4
6019140074
9014080028
656408006C
1E9005AFF4
096AA90540
0290000000
ENDCHAR
STARTCHAR Otilde
ENCODING 213
SWIDTH 612 0
DWIDTH 20 0
BBX 19 32 0 -1
BITMAP
0001A91A80
00020A2450
00050A6090
001824D180
0020705200
0050982900
0062482800
001A06B400
0190000000
061ABE6A40
05001556A0
0900140190
0500240190
03AA554290
064265AA50
0A42008420
0D6600EA60
080200C020
0805009020
0809005020
0808006020
1909006024
29A9006A98
2408006014
2418002664
2019BAA9A4
6019140074
9014080028
656408006C
1E9005AFF4
096AA90540
0290000000
ENDCHAR
STARTCHAR Odieresis
ENCODING 214
SWIDTH 612 0
DWIDTH 20 0
BBX 19 30 0 -1
BITMAP
006A86A400
0080980800
0050880800
0060890800
002A46A400
0000000000
0190000000
061ABE6A40
05001556A0
0900140190
0500240190
03AA554290
064265AA50
0A42008420
0D6600EA60
080200C020
0805009020
0809005020
0808006020
1909006024
29A9006A98
2408006014
2418002664
2019BAA9A4
6019140074
9014080028
656408006C
1E9005AFF4
096AA90540
0290000000
ENDCHAR
STARTCHAR multiply
ENCODING 215
SWIDTH 421 0
DWIDTH 14 0
BBX 12 13 1 4
BITMAP
010000
2A82A4
60950D
802806
800A06
A00358
090990
2A2424
918009
807405
909808
2642A4
050140
ENDCHAR
STARTCHAR Oslash
ENCODING 216
SWIDTH 612 0
DWIDTH 20 0
BBX 19 24 0 -1
BITMAP
0190000000
061ABE6B80
0500156090
0900145020
0500248060
03AA5640D0
06426A0290
0A421C0620
0D66268A60
0802205820
0805902420
080980A020
080A01A020
1909026024
29AE066A98
2425C86014
2420582664
20902EA9A4
6180A40074
9601880028
680208006C
180605AFF4
090AA90540
02A8000000
ENDCHAR
STARTCHAR Ugrave
ENCODING 217
SWIDTH 583 0
DWIDTH 19 0
BBX 18 31 0 -1
BITMAP
0006A00000
0018200000
0018200000
0009140000
0002080000
0001480000
0000A40000
0050001400
065A029680
0902430080
0502020080
0906024180
0905014180
0805014080
1D55025480
1956029580
1809024080
0808014080
1808018080
1408008080
2508018090
269801AA60
2008018050
201800AD50
2019AA9290
2019600290
90182001A0
6018200260
1E9006EA20
091AA86A80
0290000000
ENDCHAR
STARTCHAR Uacute
ENCODING 218
SWIDTH 583 0
DWIDTH 19 0
BBX 18 32 0 -1
BITMAP
0000068000
0000086000
0000142000
0000609000
0000824000
0001850000
0000A80000
0000000000
0050001400
065A029680
0902430080
0502020080
0906024180
0905014180
0805014080
1D55025480
1956029580
1809024080
0808014080
1808018080
1408008080
2508018090
269801AA60
2008018050
201800AD50
2019AA9290
2019600290
90182001A0
6018200260
1E9006EA20
091AA86A80
0290000000
ENDCHAR
STARTCHAR Ucircumflex
ENCODING 219
SWIDTH 583 0
DWIDTH 19 0
BBX 18 32 0 -1
BITMAP
0002A80000
00020D0000
00090A0000
0018218000
0020A09000
0081942000
0052082000
0029069000
0050001400
065A029680
0902430080
0502020080
0906024180
0905014180
0805014080
1D55025480
1956029580
1809024080
0808014080
1808018080
1408008080
2508018090
269801AA60
2008018050
201800AD50
2019AA9290
2019600290
90182001A0
6018200260
1E9006EA20
091AA86A80
0290000000
ENDCHAR
STARTCHAR Udieresis
ENCODING 220
SWIDTH 583 0
DWIDTH 19 0
BBX 18 30 0 -1
BITMAP
006A46A000
0180981800
0081481400
0081482000
006A06A000
0000000000
0050001400
065A029680
0902430080
0502020080
0906024180
0905014180
0805014080
1D55025480
1956029580
1809024080
0808014080
1808018080
1408008080
2508018090
269801AA60
2008018050
201800AD50
2019AA9290
2019600290
90182001A0
6018200260
1E9006EA20
091AA86A80
0290000000
ENDCHAR
STARTCHAR Yacute
ENCODING 221
SWIDTH 484 0
DWIDTH 16 0
BBX 18 29 -1 0
BITMAP
00000A4000
0000149000
0000206000
0000918000
0001820000
0002480000
0000A40000
068000A900
2950014640
6020024090
9018020080
6009050240
0802480600
0605A90900
0264618800
01C0601800
0090902400
0024806000
000A408000
0007408000
0005658000
0008064000
0008060000
0024080000
0060180000
00C0240000
0090200000
0065600000
0006800000
ENDCHAR
STARTCHAR Thorn
ENCODING 222
SWIDTH 520 0
DWIDTH 17 0
BBX 16 23 1 -1
BITMAP
2AA00000
60240000
62F40000
29190000
2801A400
68002A00
580021A9
AA905002
902A4002
5021A806
60201A8D
60206069
50264009
A52A8064
95649240
50201900
50206400
50218000
902A0000
80280000
C0240000
65A00000
05400000
ENDCHAR
STARTCHAR germandbls
ENCODING 223
SWIDTH 884 0
DWIDTH 28 0
BBX 29 24 0 -1
BITMAP
0005168000116800
0AABA450AABA4600
2582002259200200
3962002296140200
6021156602105600
901AA54501AA5400
2409000240900000
0806000080600000
0905400050580000
0264800026480000
0280800028090000
0180600018020000
0050180006018000
0020090002405000
0018A600008A6000
000A420000A42000
0006018000601800
006B409006B40600
6A588026A9980240
8008902800950200
8008509800560900
8005BF49001BF400
66AA00066AA40000
1400000080000000
ENDCHAR
STARTCHAR agrave
ENCODING 224
SWIDTH 507 0
DWIDTH 16 0
BBX 17 30 0 0
BITMAP
002A000000
0091400000
0081800000
0020800000
0014500000
0008600000
0006800000
0015000000
00AA900000
0080200000
00803A0000
0080920000
0180820000
0240820000
03A0814000
0619808000
0601998000
0502A09000
0902505000
0805205500
180575B600
1A97A50180
2419200080
2408200080
2014106A40
20255A5900
902A590500
8020050200
9020050600
1A9006A400
ENDCHAR
STARTCHAR aacute
ENCODING 225
SWIDTH 507 0
DWIDTH 16 0
BBX 17 30 0 0
BITMAP
00000A4000
0000085000
0000242000
0000608000
0000820000
0001490000
0000A80000
0015000000
00AA900000
0080200000
00803A0000
0080920000
0180820000
0240820000
03A0814000
0619808000
0601998000
0502A09000
0902505000
0805205500
180575B600
1A97A50180
2419200080
2408200080
2014106A40
20255A5900
902A590500
8020050200
9020050600
1A9006A400
ENDCHAR
STARTCHAR acircumflex
ENCODING 226
SWIDTH 507 0
DWIDTH 16 0
BBX 17 31 0 0
BITMAP
0006A00000
0008380000
0024280000
0060960000
0081C24000
0242508000
0188208000
00681A4000
0015000000
00AA900000
0080200000
00803A0000
0080920000
0180820000
0240820000
03A0814000
0619808000
0601998000
0502A09000
0902505000
0805205500
180575B600
1A97A50180
2419200080
2408200080
2014106A40
20255A5900
902A590500
8020050200
9020050600
1A9006A400
ENDCHAR
STARTCHAR atilde
ENCODING 227
SWIDTH 507 0
DWIDTH 16 0
BBX 17 31 0 0
BITMAP
002A82A400
0061D20800
0081A50800
0242182400
060A086000
0816428000
0920828000
0290AA0000
0015000000
00AA900000
0080200000
00803A0000
0080920000
0180820000
0240820000
03A0814000
0619808000
0601998000
0502A09000
0902505000
0805205500
180575B600
1A97A50180
2419200080
2408200080
2014106A40
20255A5900
902A590500
8020050200
9020050600
1A9006A400
ENDCHAR
STARTCHAR adieresis
ENCODING 228
SWIDTH 507 0
DWIDTH 16 0
BBX 17 29 0 0
BITMAP
01AA1A9000
0202202000
0202205000
0246205000
01A91A8000
0000000000
0015000000
00AA900000
0080200000
00803A0000
0080920000
0180820000
0240820000
03A0814000
0619808000
0601998000
0502A09000
0902505000
0805205500
180575B600
1A97A50180
2419200080
2408200080
2014106A40
20255A5900
902A590500
8020050200
9020050600
1A9006A400
ENDCHAR
STARTCHAR aring
ENCODING 229
SWIDTH 507 0
DWIDTH 16 0
BBX 17 32 0 0
BITMAP
000AA90000
0024520000
0060520000
0081908000
0142209000
009AA98000
00900A8000
0095514000
00255A0000
0015000000
00AA900000
0080200000
00803A0000
0080920000
0180820000
0240820000
03A0814000
0619808000
0601998000
0502A09000
0902505000
0805205500
180575B600
1A97A50180
2419200080
2408200080
2014106A40
20255A5900
902A590500
8020050200
9020050600
1A9006A400
ENDCHAR
STARTCHAR ae
ENCODING 230
SWIDTH 797 0
DWIDTH 26 0
BBX 27 23 -1 0
BITMAP
00000005400000
00001565AAEAA0
000026D0248024
00002020208014
00009018208014
00008020356A60
00024090355050
000A01E5200000
0009A2D5600000
00181680396800
00240950254900
00201850200500
00902050200500
01C07590254800
026855EA656800
02058080200000
09018090250000
18036A907BAA90
20094090614420
90080080214020
60140080220020
29240080396560
0690006A955680
ENDCHAR
STARTCHAR ccedilla
ENCODING 231
SWIDTH 515 0
DWIDTH 16 0
BBX 17 30 0 -7
BITMAP
0190000000
061ABE5500
0500155600
0900140140
0500240140
03AA554200
064265AA00
0A42000000
0D66000000
0802000000
0805000000
0809000000
0808000000
1909000000
29A9000000
2408000000
2418001900
2019BAA600
6019200140
9014200140
6564200240
1E9016AA00
096AEA0000
0290820000
0000820000
0001820000
0069AA0000
0050190000
0061A40000
0029000000
ENDCHAR
STARTCHAR egrave
ENCODING 232
SWIDTH 490 0
DWIDTH 16 0
BBX 15 31 1 0
BITMAP
006A0000
01820000
01820000
00914000
00208000
00148000
000A4000
00000000
05400000
65AAEAA0
50148014
20208018
20208014
20356AA0
60255050
A5200000
A5640000
50296800
50254500
60200600
60200600
50254900
AA696800
90200000
50350000
503AAA90
50214420
90214020
80214020
C0296960
6A955580
ENDCHAR
STARTCHAR eacute
ENCODING 233
SWIDTH 490 0
DWIDTH 16 0
BBX 15 31 1 0
BITMAP
0000A400
00008500
00020200
00060800
00182000
00149000
000A8000
00000000
05400000
65AAEAA0
50148014
20208018
20208014
20356AA0
60255050
A5200000
A5640000
50296800
50254500
60200600
60200600
50254900
AA696800
90200000
50350000
503AAA90
50214420
90214020
80214020
C0296960
6A955580
ENDCHAR
STARTCHAR ecircumflex
ENCODING 234
SWIDTH 490 0
DWIDTH 16 0
BBX 15 31 1 0
BITMAP
002A8000
0020D000
0090A000
01821800
020A0900
08094200
05208200
02A06900
05400000
65AAEAA0
50148014
20208018
20208014
20356AA0
60255050
A5200000
A5640000
50296800
50254500
60200600
60200600
50254900
AA696800
90200000
50350000
503AAA90
50214420
90214020
80214020
C0296960
6A955580
ENDCHAR
STARTCHAR edieresis
ENCODING 235
SWIDTH 490 0
DWIDTH 16 0
BBX 15 29 1 0
BITMAP
06A46A00
18088180
08188140
08148200
06A46A00
00000000
05400000
65AAEAA0
50148014
20208018
20208014
20356AA0
60255050
A5200000
A5640000
50296800
50254500
60200600
60200600
50254900
AA696800
90200000
50350000
503AAA90
50214420
90214020
80214020
C0296960
6A955580
ENDCHAR
STARTCHAR igrave
ENCODING 236
SWIDTH 266 0
DWIDTH 9 0
BBX 8 31 0 0
BITMAP
2B00
8240
8140
2080
1450
0860
0680
0000
0150
1959
1405
0808
0808
0808
1808
2A58
2559
1408
1408
1808
1408
1408
2A99
2408
1408
1408
1408
2408
2008
3009
1AA4
ENDCHAR
STARTCHAR iacute
ENCODING 237
SWIDTH 266 0
DWIDTH 9 0
BBX 9 31 1 0
BITMAP
002900
005240
008180
024600
060800
092000
029000
000000
054000
656400
501400
202000
202000
202000
602000
A96000
956400
502000
502000
602000
502000
502000
AA6400
902000
502000
502000
502000
902000
802000
C02400
6A9000
ENDCHAR
STARTCHAR icircumflex
ENCODING 238
SWIDTH 266 0
DWIDTH 9 0
BBX 10 32 0 0
BITMAP
02B400
091C00
081900
246200
90D080
826060
821450
280A80
000000
015000
195900
140500
080800
080800
080800
180800
2A5800
255900
140800
140800
180800
140800
140800
2A9900
240800
140800
140800
140800
240800
200800
300900
1AA400
ENDCHAR
STARTCHAR idieresis
ENCODING 239
SWIDTH 266 0
DWIDTH 9 0
BBX 11 29 -1 0
BITMAP
6A86A4
C0880C
908808
508814
6A46A0
000000
005400
065640
050140
020200
020200
020200
060200
0A9600
095640
050200
050200
060200
050200
050200
0AA640
090200
050200
050200
050200
090200
080200
0C0240
06A900
ENDCHAR
STARTCHAR eth
ENCODING 240
SWIDTH 669 0
DWIDTH 21 0
BBX 23 25 -1 -1
BITMAP
000000400000
00001AA00000
0001A8140000
000260090000
000160024000
0001A800A000
000146403800
000140D09900
000254E24240
000355980090
2A96A0864018
600518809018
500009802424
5000088069A8
26AA64818518
0503F98A0064
000200AA4180
000240E08600
000241801800
000201806400
000200818000
000200860000
000600C80000
0001AB640000
000001900000
ENDCHAR
STARTCHAR ntilde
ENCODING 241
SWIDTH 598 0
DWIDTH 19 0
BBX 17 31 1 0
BITMAP
000AA06900
0018348200
0020694200
0050860900
0182821800
020590A000
024820A000
00A42A9000
0540001500
69B9019680
501A020080
2026014080
2022014080
2021814180
6020924080
A521635480
A56D235480
9020160080
50200A0180
60340B4140
6028034180
5029018080
AA6668E980
9023808080
5021805180
5020902140
5020601940
9020200A40
8020200980
C024196480
6A9006EA40
ENDCHAR
STARTCHAR ograve
ENCODING 242
SWIDTH 612 0
DWIDTH 20 0
BBX 19 32 0 -1
BITMAP
0001A80000
0006080000
0006080000
0002450000
0000820000
0000520000
0000290000
0000000000
0190000000
061ABE6A40
05001556A0
0900140190
0500240190
03AA554290
064265AA50
0A42008420
0D6600EA60
080200C020
0805009020
0809005020
0808006020
1909006024
29A9006A98
2408006014
2418002664
2019BAA9A4
6019140074
9014080028
656408006C
1E9005AFF4
096AA90540
0290000000
ENDCHAR
STARTCHAR oacute
ENCODING 243
SWIDTH 612 0
DWIDTH 20 0
BBX 19 32 0 -1
BITMAP
000000A400
0000024800
0000020900
0000082400
0000245000
0000208000
00001A0000
0000000000
0190000000
061ABE6A40
05001556A0
0900140190
0500240190
03AA554290
064265AA50
0A42008420
0D6600EA60
080200C020
0805009020
0809005020
0808006020
1909006024
29A9006A98
2408006014
2418002664
2019BAA9A4
6019140074
9014080028
656408006C
1E9005AFF4
096AA90540
0290000000
ENDCHAR
STARTCHAR ocircumflex
ENCODING 244
SWIDTH 612 0
DWIDTH 20 0
BBX 19 32 0 -1
BITMAP
00006A0000
0000838000
0002428000
0006096000
00081C2400
0024250800
0018920800
000681A400
0190000000
061ABE6A40
05001556A0
0900140190
0500240190
03AA554290
064265AA50
0A42008420
0D6600EA60
080200C020
0805009020
0809005020
0808006020
1909006024
29A9006A98
2408006014
2418002664
2019BAA9A4
6019140074
9014080028
656408006C
1E9005AFF4
096AA90540
0290000000
ENDCHAR
STARTCHAR otilde
ENCODING 245
SWIDTH 612 0
DWIDTH 20 0
BBX 19 32 0 -1
BITMAP
0001A91A80
00020A2450
00050A6090
001824D180
0020705200
0050982900
0062482800
001A06B400
0190000000
061ABE6A40
05001556A0
0900140190
0500240190
03AA554290
064265AA50
0A42008420
0D6600EA60
080200C020
0805009020
0809005020
0808006020
1909006024
29A9006A98
2408006014
2418002664
2019BAA9A4
6019140074
9014080028
656408006C
1E9005AFF4
096AA90540
0290000000
ENDCHAR
STARTCHAR odieresis
ENCODING 246
SWIDTH 612 0
DWIDTH 20 0
BBX 19 30 0 -1
BITMAP
006A86A400
0080980800
0050880800
0060890800
002A46A400
0000000000
0190000000
061ABE6A40
05001556A0
0900140190
0500240190
03AA554290
064265AA50
0A42008420
0D6600EA60
080200C020
0805009020
0809005020
0808006020
1909006024
29A9006A98
2408006014
2418002664
2019BAA9A4
6019140074
9014080028
656408006C
1E9005AFF4
096AA90540
0290000000
ENDCHAR
STARTCHAR divide
ENCODING 247
SWIDTH 457 0
DWIDTH 15 0
BBX 14 19 0 1
BITMAP
00064000
00246000
00202000
00202000
00256000
00054000
09564140
2596AA90
60014020
60014020
20010020
26AAAA90
05010040
001A9000
00202000
00202000
00202000
00299000
00050000
ENDCHAR
STARTCHAR oslash
ENCODING 248
SWIDTH 612 0
DWIDTH 20 0
BBX 19 24 0 -1
BITMAP
0190000000
061ABE6B80
0500156090
0900145020
0500248060
03AA5640D0
06426A0290
0A421C0620
0D66268A60
0802205820
0805902420
080980A020
080A01A020
1909026024
29AE066A98
2425C86014
2420582664
20902EA9A4
6180A40074
9601880028
680208006C
180605AFF4
090AA90540
02A8000000
ENDCHAR
STARTCHAR ugrave
ENCODING 249
SWIDTH 583 0
DWIDTH 19 0
BBX 18 31 0 -1
BITMAP
0006A00000
0018200000
0018200000
0009140000
0002080000
0001480000
0000A40000
0050001400
065A029680
0902430080
0502020080
0906024180
0905014180
0805014080
1D55025480
1956029580
1809024080
0808014080
1808018080
1408008080
2508018090
269801AA60
2008018050
201800AD50
2019AA9290
2019600290
90182001A0
6018200260
1E9006EA20
091AA86A80
0290000000
ENDCHAR
STARTCHAR uacute
ENCODING 250
SWIDTH 583 0
DWIDTH 19 0
BBX 18 32 0 -1
BITMAP
0000068000
0000086000
0000142000
0000609000
0000824000
0001850000
0000A80000
0000000000
0050001400
065A029680
0902430080
0502020080
0906024180
0905014180
0805014080
1D55025480
1956029580
1809024080
0808014080
1808018080
1408008080
2508018090
269801AA60
2008018050
201800AD50
2019AA9290
2019600290
90182001A0
6018200260
1E9006EA20
091AA86A80
0290000000
ENDCHAR
STARTCHAR ucircumflex
ENCODING 251
SWIDTH 583 0
DWIDTH 19 0
BBX 18 32 0 -1
BITMAP
0002A80000
00020D0000
00090A0000
0018218000
0020A09000
0081942000
0052082000
0029069000
0050001400
065A029680
0902430080
0502020080
0906024180
0905014180
0805014080
1D55025480
1956029580
1809024080
0808014080
1808018080
1408008080
2508018090
269801AA60
2008018050
201800AD50
2019AA9290
2019600290
90182001A0
6018200260
1E9006EA20
091AA86A80
0290000000
ENDCHAR
STARTCHAR udieresis
ENCODING 252
SWIDTH 583 0
DWIDTH 19 0
BBX 18 30 0 -1
BITMAP
006A46A000
0180981800
0081481400
0081482000
006A06A000
0000000000
0050001400
065A029680
0902430080
0502020080
0906024180
0905014180
0805014080
1D55025480
1956029580
1809024080
0808014080
1808018080
1408008080
2508018090
269801AA60
2008018050
201800AD50
2019AA9290
2019600290
90182001A0
6018200260
1E9006EA20
091AA86A80
0290000000
ENDCHAR
STARTCHAR yacute
ENCODING 253
SWIDTH 484 0
DWIDTH 16 0
BBX 18 29 -1 0
BITMAP
00000A4000
0000149000
0000206000
0000918000
0001820000
0002480000
0000A40000
068000A900
2950014640
6020024090
9018020080
6009050240
0802480600
0605A90900
0264618800
01C0601800
0090902400
0024806000
000A408000
0007408000
0005658000
0008064000
0008060000
0024080000
0060180000
00C0240000
0090200000
0065600000
0006800000
ENDCHAR
STARTCHAR thorn
ENCODING 254
SWIDTH 520 0
DWIDTH 17 0
BBX 16 23 1 -1
BITMAP
2AA00000
60240000
62F40000
29190000
2801A400
68002A00
580021A9
AA905002
902A4002
5021A806
60201A8D
60206069
50264009
A52A8064
95649240
50201900
50206400
50218000
902A0000
80280000
C0240000
65A00000
05400000
ENDCHAR
STARTCHAR ydieresis
ENCODING 255
SWIDTH 484 0
DWIDTH 16 0
BBX 18 28 -1 0
BITMAP
00AA5A9000
0241642400
0142142000
0082142000
00AA0A9000
0000000000
068000A900
2950014640
6020024090
9018020080
6009050240
0802480600
0605A90900
0264618800
01C0601800
0090902400
0024806000
000A408000
0007408000
0005658000
0008064000
0008060000
0024080000
0060180000
00C0240000
0090200000
0065600000
0006800000
ENDCHAR
STARTCHAR Amacron
ENCODING 256
SWIDTH 507 0
DWIDTH 16 0
BBX 17 28 0 0
BITMAP
0010000000
00AAAA0000
0080014000
0081024000
006AAA0000
0015000000
00AA900000
0080200000
00803A0000
0080920000
0180820000
0240820000
03A0814000
0619808000
0601998000
0502A09000
0902505000
0805205500
180575B600
1A97A50180
2419200080
2408200080
2014106A40
20255A5900
902A590500
8020050200
9020050600
1A9006A400
ENDCHAR
STARTCHAR amacron
ENCODING 257
SWIDTH 507 0
DWIDTH 16 0
BBX 17 28 0 0
BITMAP
0010000000
00AAAA0000
0080014000
0081024000
006AAA0000
0015000000
00AA900000
0080200000
00803A0000
0080920000
0180820000
0240820000
03A0814000
0619808000
0601998000
0502A09000
0902505000
0805205500
180575B600
1A97A50180
2419200080
2408200080
2014106A40
20255A5900
902A590500
8020050200
9020050600
1A9006A400
ENDCHAR
STARTCHAR Abreve
ENCODING 258
SWIDTH 507 0
DWIDTH 16 0
BBX 17 31 0 0
BITMAP
00A4050000
0248258000
0208209000
0208208000
014AA94000
0145074000
01A9070000
002AA80000
0015000000
00AA900000
0080200000
00803A0000
0080920000
0180820000
0240820000
03A0814000
0619808000
0601998000
0502A09000
0902505000
0805205500
180575B600
1A97A50180
2419200080
2408200080
2014106A40
20255A5900
902A590500
8020050200
9020050600
1A9006A400
ENDCHAR
STARTCHAR abreve
ENCODING 259
SWIDTH 507 0
DWIDTH 16 0
BBX 17 31 0 0
BITMAP
00A4050000
0248258000
0208209000
0208208000
014AA94000
0145074000
01A9070000
002AA80000
0015000000
00AA900000
0080200000
00803A0000
0080920000
0180820000
0240820000
03A0814000
0619808000
0601998000
0502A09000
0902505000
0805205500
180575B600
1A97A50180
2419200080
2408200080
2014106A40
20255A5900
902A590500
8020050200
9020050600
1A9006A400
ENDCHAR
STARTCHAR Aogonek
ENCODING 260
SWIDTH 507 0
DWIDTH 16 0
BBX 17 30 0 -7
BITMAP
0015000000
00AA900000
0080200000
00803A0000
0080920000
0180820000
0240820000
03A0814000
0619808000
0601998000
0502A09000
0902505000
0805205500
180575B600
1A97A50180
2419200080
2408200080
2014106A40
20255A5900
902A590500
8020050200
9020050600
1A9007AC00
0000051800
0000082400
0000096900
0000038180
0000009080
0000002580
0000000900
ENDCHAR
STARTCHAR aogonek
ENCODING 261
SWIDTH 507 0
DWIDTH 16 0
BBX 17 30 0 -7
BITMAP
0015000000
00AA900000
0080200000
00803A0000
0080920000
0180820000
0240820000
03A0814000
0619808000
0601998000
0502A09000
0902505000
0805205500
180575B600
1A97A50180
2419200080
2408200080
2014106A40
20255A5900
902A590500
8020050200
9020050600
1A9007AC00
0000051800
0000082400
0000096900
0000038180
0000009080
0000002580
0000000900
ENDCHAR
STARTCHAR Cacute
ENCODING 262
SWIDTH 515 0
DWIDTH 16 0
BBX 17 31 0 -1
BITMAP
0000029000
0000092000
0000082400
0000246000
0000918000
0000820000
0000690000
0190000000
061ABE5500
0500155600
0900140140
0500240140
03AA554200
064265AA00
0A42000000
0D66000000
0802000000
0805000000
0809000000
0808000000
1909000000
29A9000000
2408000000
2418001900
2019BAA600
6019200140
9014200140
6564200240
1E9016AA00
096AA90000
0290000000
ENDCHAR
STARTCHAR cacute
ENCODING 263
SWIDTH 515 0
DWIDTH 16 0
BBX 17 31 0 -1
BITMAP
0000029000
0000092000
0000082400
0000246000
0000918000
0000820000
0000690000
0190000000
061ABE5500
0500155600
0900140140
0500240140
03AA554200
064265AA00
0A42000000
0D66000000
0802000000
0805000000
0809000000
0808000000
1909000000
29A9000000
2408000000
2418001900
2019BAA600
6019200140
9014200140
6564200240
1E9016AA00
096AA90000
0290000000
ENDCHAR
STARTCHAR Ccircumflex
ENCODING 264
SWIDTH 515 0
DWIDTH 16 0
BBX 17 32 0 -1
BITMAP
0000AA0000
0001874000
0002068000
0005085000
0018282400
0020590800
0024820800
000A42A000
0190000000
061ABE5500
0500155600
0900140140
0500240140
03AA554200
064265AA00
0A42000000
0D66000000
0802000000
0805000000
0809000000
0808000000
1909000000
29A9000000
2408000000
2418001900
2019BAA600
6019200140
9014200140
6564200240
1E9016AA00
096AA90000
0290000000
ENDCHAR
STARTCHAR ccircumflex
ENCODING 265
SWIDTH 515 0
DWIDTH 16 0
BBX 17 32 0 -1
BITMAP
0000AA0000
0001874000
0002068000
0005085000
0018282400
0020590800
0024820800
000A42A000
0190000000
061ABE5500
0500155600
0900140140
0500240140
03AA554200
064265AA00
0A42000000
0D66000000
0802000000
0805000000
0809000000
0808000000
1909000000
29A9000000
2408000000
2418001900
2019BAA600
6019200140
9014200140
6564200240
1E9016AA00
096AA90000
0290000000
ENDCHAR
STARTCHAR Cdotaccent
ENCODING 266
SWIDTH 515 0
DWIDTH 16 0
BBX 17 29 0 -1
BITMAP
0001AA0000
0002424000
0001420000
0001820000
0000A90000
0190000000
061ABE5500
0500155600
0900140140
0500240140
03AA554200
064265AA00
0A42000000
0D66000000
0802000000
0805000000
0809000000
0808000000
1909000000
29A9000000
2408000000
2418001900
2019BAA600
6019200140
9014200140
6564200240
1E9016AA00
096AA90000
0290000000
ENDCHAR
STARTCHAR cdotaccent
ENCODING 267
SWIDTH 515 0
DWIDTH 16 0
BBX 17 29 0 -1
BITMAP
0001AA0000
0002424000
0001420000
0001820000
0000A90000
0190000000
061ABE5500
0500155600
0900140140
0500240140
03AA554200
064265AA00
0A42000000
0D66000000
0802000000
0805000000
0809000000
0808000000
1909000000
29A9000000
2408000000
2418001900
2019BAA600
6019200140
9014200140
6564200240
1E9016AA00
096AA90000
0290000000
ENDCHAR
STARTCHAR Ccaron
ENCODING 268
SWIDTH 515 0
DWIDTH 16 0
BBX 17 33 0 -1
BITMAP
0001004000
001A82A400
0020850800
0024281800
0008242000
0005088000
0002068000
00024B0000
0000A90000
0190000000
061ABE5500
0500155600
0900140140
0500240140
03AA554200
064265AA00
0A42000000
0D66000000
0802000000
0805000000
0809000000
0808000000
1909000000
29A9000000
2408000000
2418001900
2019BAA600
6019200140
9014200140
6564200240
1E9016AA00
096AA90000
0290000000
ENDCHAR
STARTCHAR ccaron
ENCODING 269
SWIDTH 515 0
DWIDTH 16 0
BBX 17 33 0 -1
BITMAP
0001004000
001A82A400
0020850800
0024281800
0008242000
0005088000
0002068000
00024B0000
0000A90000
0190000000
061ABE5500
0500155600
0900140140
0500240140
03AA554200
064265AA00
0A42000000
0D66000000
0802000000
0805000000
0809000000
0808000000
1909000000
29A9000000
2408000000
2418001900
2019BAA600
6019200140
9014200140
6564200240
1E9016AA00
096AA90000
0290000000
ENDCHAR
STARTCHAR Dcaron
ENCODING 270
SWIDTH 520 0
DWIDTH 17 0
BBX 16 34 1 -1
BITMAP
00401000
02606900
09148200
06094200
01460900
00821400
0050A000
0021D000
001A8000
00000000
05A80000
6B060000
59028000
2800A000
26401800
20900A00
60341940
A52D6090
A5664028
50209006
50202802
60200909
60201A6A
50206043
AA668019
902A9060
50382580
50300600
50200900
90206400
80208000
C0264000
6AE50000
00680000
ENDCHAR
STARTCHAR dcaron
ENCODING 271
SWIDTH 520 0
DWIDTH 17 0
BBX 16 34 1 -1
BITMAP
00401000
02606900
09148200
06094200
01460900
00821400
0050A000
0021D000
001A8000
00000000
05A80000
6B060000
59028000
2800A000
26401800
20900A00
60341940
A52D6090
A5664028
50209006
50202802
60200909
60201A6A
50206043
AA668019
902A9060
50382580
50300600
50200900
90206400
80208000
C0264000
6AE50000
00680000
ENDCHAR
STARTCHAR Dcroat
ENCODING 272
SWIDTH 669 0
DWIDTH 21 0
BBX 23 25 -1 -1
BITMAP
000000400000
00001AA00000
0001A8140000
000260090000
000160024000
0001A800A000
000146403800
000140D09900
000254E24240
000355980090
2A96A0864018
600518809018
500009802424
5000088069A8
26AA64818518
0503F98A0064
000200AA4180
000240E08600
000241801800
000201806400
000200818000
000200860000
000600C80000
0001AB640000
000001900000
ENDCHAR
STARTCHAR dcroat
ENCODING 273
SWIDTH 669 0
DWIDTH 21 0
BBX 23 25 -1 -1
BITMAP
000000400000
00001AA00000
0001A8140000
000260090000
000160024000
0001A800A000
000146403800
000140D09900
000254E24240
000355980090
2A96A0864018
600518809018
500009802424
5000088069A8
26AA64818518
0503F98A0064
000200AA4180
000240E08600
000241801800
000201806400
000200818000
000200860000
000600C80000
0001AB640000
000001900000
ENDCHAR
STARTCHAR Emacron
ENCODING 274
SWIDTH 490 0
DWIDTH 16 0
BBX 15 29 1 0
BITMAP
00400000
02AAA800
06000800
02000800
01AAA400
00000000
05400000
65AAEAA0
50148014
20208018
20208014
20356AA0
60255050
A5200000
A5640000
50296800
50254500
60200600
60200600
50254900
AA696800
90200000
50350000
503AAA90
50214420
90214020
80214020
C0296960
6A955580
ENDCHAR
STARTCHAR emacron
ENCODING 275
SWIDTH 490 0
DWIDTH 16 0
BBX 15 29 1 0
BITMAP
00400000
02AAA800
06000800
02000800
01AAA400
00000000
05400000
65AAEAA0
50148014
20208018
20208014
20356AA0
60255050
A5200000
A5640000
50296800
50254500
60200600
60200600
50254900
AA696800
90200000
50350000
503AAA90
50214420
90214020
80214020
C0296960
6A955580
ENDCHAR
STARTCHAR Ebreve
ENCODING 276
SWIDTH 490 0
DWIDTH 16 0
BBX 15 31 1 0
BITMAP
01901500
09242680
05145080
02145240
020EA600
02080A00
02A40D00
006AA400
05400000
65AAEAA0
50148014
20208018
20208014
20356AA0
60255050
A5200000
A5640000
50296800
50254500
60200600
60200600
50254900
AA696800
90200000
50350000
503AAA90
50214420
90214020
80214020
C0296960
6A955580
ENDCHAR
STARTCHAR ebreve
ENCODING 277
SWIDTH 490 0
DWIDTH 16 0
BBX 15 31 1 0
BITMAP
01901500
09242680
05145080
02145240
020EA600
02080A00
02A40D00
006AA400
05400000
65AAEAA0
50148014
20208018
20208014
20356AA0
60255050
A5200000
A5640000
50296800
50254500
60200600
60200600
50254900
AA696800
90200000
50350000
503AAA90
50214420
90214020
80214020
C0296960
6A955580
ENDCHAR
STARTCHAR Edotaccent
ENCODING 278
SWIDTH 490 0
DWIDTH 16 0
BBX 15 29 1 0
BITMAP
006A8000
00905000
00508000
00208000
002A8000
00000000
05400000
65AAEAA0
50148014
20208018
20208014
20356AA0
60255050
A5200000
A5640000
50296800
50254500
60200600
60200600
50254900
AA696800
90200000
50350000
503AAA90
50214420
90214020
80214020
C0296960
6A955580
ENDCHAR
STARTCHAR edotaccent
ENCODING 279
SWIDTH 490 0
DWIDTH 16 0
BBX 15 29 1 0
BITMAP
006A8000
00905000
00508000
00208000
002A8000
00000000
05400000
65AAEAA0
50148014
20208018
20208014
20356AA0
60255050
A5200000
A5640000
50296800
50254500
60200600
60200600
50254900
AA696800
90200000
50350000
503AAA90
50214420
90214020
80214020
C0296960
6A955580
ENDCHAR
STARTCHAR Eogonek
ENCODING 280
SWIDTH 490 0
DWIDTH 16 0
BBX 15 30 1 -7
BITMAP
05400000
65AAEAA0
50148014
20208018
20208014
20356AA0
60255050
A5200000
A5640000
50296800
50254500
60200600
60200600
50254900
AA696800
90200000
50350000
503AAA90
50214420
90214020
80214020
C0296960
6A95D680
00018200
00020900
00029A40
0000E060
00002420
00000960
00000240
ENDCHAR
STARTCHAR eogonek
ENCODING 281
SWIDTH 490 0
DWIDTH 16 0
BBX 15 30 1 -7
BITMAP
05400000
65AAEAA0
50148014
20208018
20208014
20356AA0
60255050
A5200000
A5640000
50296800
50254500
60200600
60200600
50254900
AA696800
90200000
50350000
503AAA90
50214420
90214020
80214020
C0296960
6A95D680
00018200
00020900
00029A40
0000E060
00002420
00000960
00000240
ENDCHAR
STARTCHAR Ecaron
ENCODING 282
SWIDTH 490 0
DWIDTH 16 0
BBX 15 32 1 0
BITMAP
00000400
02A42A00
06089180
02058240
00834600
00914800
0020A400
0021A000
001A9000
05400000
65AAEAA0
50148014
20208018
20208014
20356AA0
60255050
A5200000
A5640000
50296800
50254500
60200600
60200600
50254900
AA696800
90200000
50350000
503AAA90
50214420
90214020
80214020
C0296960
6A955580
ENDCHAR
STARTCHAR ecaron
ENCODING 283
SWIDTH 490 0
DWIDTH 16 0
BBX 15 32 1 0
BITMAP
00000400
02A42A00
06089180
02058240
00834600
00914800
0020A400
0021A000
001A9000
05400000
65AAEAA0
50148014
20208018
20208014
20356AA0
60255050
A5200000
A5640000
50296800
50254500
60200600
60200600
50254900
AA696800
90200000
50350000
503AAA90
50214420
90214020
80214020
C0296960
6A955580
ENDCHAR
STARTCHAR Gcircumflex
ENCODING 284
SWIDTH 557 0
DWIDTH 18 0
BBX 18 32 0 -1
BITMAP
0000AD0000
00024B0000
00020A4000
0008188000
0024342000
0020981800
0021851400
001A02A000
0190000000
061ABE5500
0500155600
0900140140
0500240140
03AA554200
064265AA00
0A42000000
0D66000000
0802000400
080501AA40
0809020080
0808024080
1909014180
29A9014080
2408015580
2418029480
2019BB4080
6019218080
9014218080
6564214050
1E90164090
096AA9AA40
0290000000
ENDCHAR
STARTCHAR gcircumflex
ENCODING 285
SWIDTH 557 0
DWIDTH 18 0
BBX 18 32 0 -1
BITMAP
0000AD0000
00024B0000
00020A4000
0008188000
0024342000
0020981800
0021851400
001A02A000
0190000000
061ABE5500
0500155600
0900140140
0500240140
03AA554200
064265AA00
0A42000000
0D66000000
0802000400
080501AA40
0809020080
0808024080
1909014180
29A9014080
2408015580
2418029480
2019BB4080
6019218080
9014218080
6564214050
1E90164090
096AA9AA40
0290000000
ENDCHAR
STARTCHAR Gbreve
ENCODING 286
SWIDTH 557 0
DWIDTH 18 0
BBX 18 32 0 -1
BITMAP
0019015000
0092426800
0051450800
0021452400
0020EA6000
002080A000
002A40D000
0006AA4000
0190000000
061ABE5500
0500155600
0900140140
0500240140
03AA554200
064265AA00
0A42000000
0D66000000
0802000400
080501AA40
0809020080
0808024080
1909014180
29A9014080
2408015580
2418029480
2019BB4080
6019218080
9014218080
6564214050
1E90164090
096AA9AA40
0290000000
ENDCHAR
STARTCHAR gbreve
ENCODING 287
SWIDTH 557 0
DWIDTH 18 0
BBX 18 32 0 -1
BITMAP
0019015000
0092426800
0051450800
0021452400
0020EA6000
002080A000
002A40D000
0006AA4000
0190000000
061ABE5500
0500155600
0900140140
0500240140
03AA554200
064265AA00
0A42000000
0D66000000
0802000400
080501AA40
0809020080
0808024080
1909014180
29A9014080
2408015580
2418029480
2019BB4080
6019218080
9014218080
6564214050
1E90164090
096AA9AA40
0290000000
ENDCHAR
STARTCHAR Gdotaccent
ENCODING 288
SWIDTH 557 0
DWIDTH 18 0
BBX 18 30 0 -1
BITMAP
0000AA4000
0002414000
0001420000
0000820000
0000AA0000
0000000000
0190000000
061ABE5500
0500155600
0900140140
0500240140
03AA554200
064265AA00
0A42000000
0D66000000
0802000400
080501AA40
0809020080
0808024080
1909014180
29A9014080
2408015580
2418029480
2019BB4080
6019218080
9014218080
6564214050
1E90164090
096AA9AA40
0290000000
ENDCHAR
STARTCHAR gdotaccent
ENCODING 289
SWIDTH 557 0
DWIDTH 18 0
BBX 18 30 0 -1
BITMAP
0000AA4000
0002414000
0001420000
0000820000
0000AA0000
0000000000
0190000000
061ABE5500
0500155600
0900140140
0500240140
03AA554200
064265AA00
0A42000000
0D66000000
0802000400
080501AA40
0809020080
0808024080
1909014180
29A9014080
2408015580
2418029480
2019BB4080
6019218080
9014218080
6564214050
1E90164090
096AA9AA40
0290000000
ENDCHAR
STARTCHAR Gcommaaccent
ENCODING 290
SWIDTH 557 0
DWIDTH 18 0
BBX 18 31 0 -8
BITMAP
0190000000
061ABE5500
0500155600
0900140140
0500240140
03AA554200
064265AA00
0A42000000
0D66000000
0802000400
080501AA40
0809020080
0808024080
1909014180
29A9014080
2408015580
2418029480
2019BB4080
6019218080
9014218080
6564214050
1E90164090
096AA9AA40
0290000000
0000A00000
0002480000
0006090000
0008240000
0024500000
0020800000
001A000000
ENDCHAR
STARTCHAR gcommaaccent
ENCODING 291
SWIDTH 557 0
DWIDTH 18 0
BBX 18 31 0 -8
BITMAP
0190000000
061ABE5500
0500155600
0900140140
0500240140
03AA554200
064265AA00
0A42000000
0D66000000
0802000400
080501AA40
0809020080
0808024080
1909014180
29A9014080
2408015580
2418029480
2019BB4080
6019218080
9014218080
6564214050
1E90164090
096AA9AA40
0290000000
0000A00000
0002480000
0006090000
0008240000
0024500000
0020800000
001A000000
ENDCHAR
STARTCHAR Hcircumflex
ENCODING 292
SWIDTH 611 0
DWIDTH 20 0
BBX 19 31 1 0
BITMAP
0002B40000
00091C0000
0008190000
0024620000
0090D08000
0082606000
0082145000
00280A8000
0540006900
6564065680
5014050080
2020020180
2020020140
2020020140
6020020140
A960065140
9564065980
5020020140
5020020240
60300206A0
503003A924
5025698014
AA6E508014
9022008164
5022006A90
50216B8240
503A460240
9030050140
8020090180
C024090240
6A9002A900
ENDCHAR
STARTCHAR hcircumflex
ENCODING 293
SWIDTH 611 0
DWIDTH 20 0
BBX 19 31 1 0
BITMAP
0002B40000
00091C0000
0008190000
0024620000
0090D08000
0082606000
0082145000
00280A8000
0540006900
6564065680
5014050080
2020020180
2020020140
2020020140
6020020140
A960065140
9564065980
5020020140
5020020240
60300206A0
503003A924
5025698014
AA6E508014
9022008164
5022006A90
50216B8240
503A460240
9030050140
8020090180
C024090240
6A9002A900
ENDCHAR
STARTCHAR Hbar
ENCODING 294
SWIDTH 706 0
DWIDTH 23 0
BBX 22 23 1 0
BITMAP
0054000A4000
065A00656400
050240500800
060200601400
2A0350751440
8603AA5EAA80
850340080050
8A9240080050
895605040050
6D03AABABA80
050200202400
050200207A00
0503003A9240
090256980140
0AA6E4080140
090220081600
05022016A500
050216A82000
0903A4602000
080200502400
080200801400
080200902400
06A9002A9000
ENDCHAR
STARTCHAR hbar
ENCODING 295
SWIDTH 706 0
DWIDTH 23 0
BBX 22 23 1 0
BITMAP
0054000A4000
065A00656400
050240500800
060200601400
2A0350751440
8603AA5EAA80
850340080050
8A9240080050
895605040050
6D03AABABA80
050200202400
050200207A00
0503003A9240
090256980140
0AA6E4080140
090220081600
05022016A500
050216A82000
0903A4602000
080200502400
080200801400
080200902400
06A9002A9000
ENDCHAR
STARTCHAR Itilde
ENCODING 296
SWIDTH 266 0
DWIDTH 9 0
BBX 14 31 -2 0
BITMAP
01A81A80
020E2050
090A6090
1825D180
20709200
90942900
62082800
1906B400
00150000
01959000
01405000
00808000
00808000
00808000
01808000
02A58000
02559000
01408000
01408000
01808000
01408000
01408000
02A99000
02408000
01408000
01408000
01408000
02408000
02008000
03009000
01AA4000
ENDCHAR
STARTCHAR itilde
ENCODING 297
SWIDTH 266 0
DWIDTH 9 0
BBX 14 31 -2 0
BITMAP
01A81A80
020E2050
090A6090
1825D180
20709200
90942900
62082800
1906B400
00150000
01959000
01405000
00808000
00808000
00808000
01808000
02A58000
02559000
01408000
01408000
01808000
01408000
01408000
02A99000
02408000
01408000
01408000
01408000
02408000
02008000
03009000
01AA4000
ENDCHAR
STARTCHAR Imacron
ENCODING 298
SWIDTH 266 0
DWIDTH 9 0
BBX 9 27 0 0
BITMAP
6AAA40
800080
800180
2AAA00
015000
195900
140500
080800
080800
080800
180800
2A5800
255900
140800
140800
180800
140800
140800
2A9900
240800
140800
140800
140800
240800
200800
300900
1AA400
ENDCHAR
STARTCHAR imacron
ENCODING 299
SWIDTH 266 0
DWIDTH 9 0
BBX 9 27 0 0
BITMAP
6AAA40
800080
800180
2AAA00
015000
195900
140500
080800
080800
080800
180800
2A5800
255900
140800
140800
180800
140800
140800
2A9900
240800
140800
140800
140800
240800
200800
300900
1AA400
ENDCHAR
STARTCHAR Ibreve
ENCODING 300
SWIDTH 266 0
DWIDTH 9 0
BBX 11 31 -1 0
BITMAP
190150
614258
514208
208514
20AAA0
2080A0
2A8090
06AA80
005400
065640
050140
020200
020200
020200
060200
0A9600
095640
050200
050200
060200
050200
050200
0AA640
090200
050200
050200
050200
090200
080200
0C0240
06A900
ENDCHAR
STARTCHAR ibreve
ENCODING 301
SWIDTH 266 0
DWIDTH 9 0
BBX 11 31 -1 0
BITMAP
190150
614258
514208
208514
20AAA0
2080A0
2A8090
06AA80
005400
065640
050140
020200
020200
020200
060200
0A9600
095640
050200
050200
060200
050200
050200
0AA640
090200
050200
050200
050200
090200
080200
0C0240
06A900
ENDCHAR
STARTCHAR Iogonek
ENCODING 302
SWIDTH 266 0
DWIDTH 9 0
BBX 8 31 0 -8
BITMAP
0150
1959
1405
0808
0808
0808
1808
2A58
2559
1408
1408
1808
1408
1408
2A99
2408
1408
1408
1408
2408
2008
3009
1EB4
1450
2080
5180
2664
2D09
0605
0198
0050
ENDCHAR
STARTCHAR iogonek
ENCODING 303
SWIDTH 266 0
DWIDTH 9 0
BBX 8 31 0 -8
BITMAP
0150
1959
1405
0808
0808
0808
1808
2A58
2559
1408
1408
1808
1408
1408
2A99
2408
1408
1408
1408
2408
2008
3009
1EB4
1450
2080
5180
2664
2D09
0605
0198
0050
ENDCHAR
STARTCHAR Idotaccent
ENCODING 304
SWIDTH 266 0
DWIDTH 9 0
BBX 7 29 1 0
BITMAP
1A90
6020
2050
2050
1A80
0000
0540
6564
5014
2020
2020
2020
6020
A960
9564
5020
5020
6020
5020
5020
AA64
9020
5020
5020
5020
9020
8020
C024
6A90
ENDCHAR
STARTCHAR dotlessi
ENCODING 305
SWIDTH 266 0
DWIDTH 9 0
BBX 7 23 1 0
BITMAP
0540
6564
5014
2020
2020
2020
6020
A960
9564
5020
5020
6020
5020
5020
AA64
9020
5020
5020
5020
9020
8020
C024
6A90
ENDCHAR
STARTCHAR IJ
ENCODING 306
SWIDTH 750 0
DWIDTH 24 0
BBX 22 24 1 -1
BITMAP
054000001540
65640000A5A0
501400008020
202000009020
202000005060
202000009060
602000008060
A9600000D520
95640000D520
502000008060
502000008050
602019008050
502092008050
502241808060
AA6600A0EA60
902280188020
502060158050
50201582C050
50200A01C050
902006006450
802001800860
C02400601860
6A9000247A80
0000001A8000
ENDCHAR
STARTCHAR ij
ENCODING 307
SWIDTH 749 0
DWIDTH 24 0
BBX 22 24 1 -1
BITMAP
054000001540
65640000A5A0
501400008020
202000009020
202000005060
202000009060
602000008060
A9600000D520
95640000D520
502000008060
502000008050
602019008050
502092008050
502241808060
AA6600A0EA60
902280188020
502060158050
50201582C050
50200A01C050
902006006450
802001800860
C02400601860
6A9000247A80
0000001A8000
ENDCHAR
STARTCHAR Jcircumflex
ENCODING 308
SWIDTH 484 0
DWIDTH 16 0
BBX 18 32 -1 -1
BITMAP
000006A400
0000082800
0000142800
0000209200
000081C180
0001426090
0001852080
0000681A40
0000015000
00001A6900
0000180500
0000080900
0000080800
0000080800
0000180800
0000195900
0000295900
0000140800
0000180800
0280180800
1950180800
2020140800
50082A9500
6402540900
0905940800
0224780800
01D0280800
00900A0800
0024024800
0008020900
00060BA400
0002A40000
ENDCHAR
STARTCHAR jcircumflex
ENCODING 309
SWIDTH 482 0
DWIDTH 15 0
BBX 18 32 -1 -1
BITMAP
000006A400
0000082800
0000142800
0000209200
000081C180
0001426090
0001852080
0000681A40
0000015000
00001A6900
0000180500
0000080900
0000080800
0000080800
0000180800
0000195900
0000295900
0000140800
0000180800
0280180800
1950180800
2020140800
50082A9500
6402540900
0905940800
0224780800
01D0280800
00900A0800
0024024800
0008020900
00060BA400
0002A40000
ENDCHAR
STARTCHAR Kcommaaccent
ENCODING 310
SWIDTH 541 0
DWIDTH 17 0
BBX 17 31 1 -8
BITMAP
0540000000
65A400A400
5014015A00
2020020240
2020090080
2020640240
6021D00900
A522682400
A56A055000
5028018000
5030060000
60201E0000
6034220000
5028914000
AA65808000
9027865000
5038E42000
5030902000
5020601800
9020200900
8020140600
C024080900
6A900AA400
0000010000
000A400000
0008500000
0024200000
0060800000
0082000000
0149000000
00A8000000
ENDCHAR
STARTCHAR kcommaaccent
ENCODING 311
SWIDTH 541 0
DWIDTH 17 0
BBX 17 31 1 -8
BITMAP
0540000000
65A400A400
5014015A00
2020020240
2020090080
2020640240
6021D00900
A522682400
A56A055000
5028018000
5030060000
60201E0000
6034220000
5028914000
AA65808000
9027865000
5038E42000
5030902000
5020601800
9020200900
8020140600
C024080900
6A900AA400
0000010000
000A400000
0008500000
0024200000
0060800000
0082000000
0149000000
00A8000000
ENDCHAR
STARTCHAR kgreenlandic
ENCODING 312
SWIDTH 541 0
DWIDTH 17 0
BBX 17 24 1 -1
BITMAP
0540000000
65A400A400
5014015A00
2020020240
2020090080
2020640240
6021D00900
A522682400
A56A055000
5028018000
5030060000
60201E0000
6034220000
5028914000
AA65808000
9027865000
5038E42000
5030902000
5020601800
9020200900
8020140600
C024080900
6A900AA400
0000010000
ENDCHAR
STARTCHAR Lacute
ENCODING 313
SWIDTH 467 0
DWIDTH 15 0
BBX 15 30 1 0
BITMAP
000A4000
00148000
00205000
00918000
01460000
02080000
01A40000
05400000
65640000
50140000
20200000
20200000
20200000
60200000
A9600000
95640000
50200000
50200000
60200000
50200000
50200000
AA640000
90200000
50200000
503FA6A0
50261524
90220018
80260018
C0255524
6A9A56A0
ENDCHAR
STARTCHAR lacute
ENCODING 314
SWIDTH 467 0
DWIDTH 15 0
BBX 15 30 1 0
BITMAP
000A4000
00148000
00205000
00918000
01460000
02080000
01A40000
05400000
65640000
50140000
20200000
20200000
20200000
60200000
A9600000
95640000
50200000
50200000
60200000
50200000
50200000
AA640000
90200000
50200000
503FA6A0
50261524
90220018
80260018
C0255524
6A9A56A0
ENDCHAR
STARTCHAR Lcommaaccent
ENCODING 315
SWIDTH 467 0
DWIDTH 15 0
BBX 15 31 1 -8
BITMAP
05400000
65640000
50140000
20200000
20200000
20200000
60200000
A9600000
95640000
50200000
50200000
60200000
50200000
50200000
AA640000
90200000
50200000
503FA6A0
50261524
90220018
80260018
C0255524
6A9A56A0
00000000
00290000
00624000
00818000
02460000
06080000
09200000
02900000
ENDCHAR
STARTCHAR lcommaaccent
ENCODING 316
SWIDTH 467 0
DWIDTH 15 0
BBX 15 31 1 -8
BITMAP
05400000
65640000
50140000
20200000
20200000
20200000
60200000
A9600000
95640000
50200000
50200000
60200000
50200000
50200000
AA640000
90200000
50200000
503FA6A0
50261524
90220018
80260018
C0255524
6A9A56A0
00000000
00290000
00624000
00818000
02460000
06080000
09200000
02900000
ENDCHAR
STARTCHAR Lcaron
ENCODING 317
SWIDTH 467 0
DWIDTH 15 0
BBX 15 25 1 0
BITMAP
00000500
00000980
05402050
65646090
50148240
20220900
20225800
20206000
60200000
A9600000
95640000
50200000
50200000
60200000
50200000
50200000
AA640000
90200000
50200000
503FA6A0
50261524
90220018
80260018
C0255524
6A9A56A0
ENDCHAR
STARTCHAR lcaron
ENCODING 318
SWIDTH 467 0
DWIDTH 15 0
BBX 15 25 1 0
BITMAP
00000500
00000980
05402050
65646090
50148240
20220900
20225800
20206000
60200000
A9600000
95640000
50200000
50200000
60200000
50200000
50200000
AA640000
90200000
50200000
503FA6A0
50261524
90220018
80260018
C0255524
6A9A56A0
ENDCHAR
STARTCHAR Ldot
ENCODING 319
SWIDTH 611 0
DWIDTH 20 0
BBX 18 23 1 0
BITMAP
0540000000
6564000000
5014000000
2020000000
2020000000
2020000000
6020000000
A960000000
9564000500
5020006590
5020006050
6020002050
5020006050
5020001A80
AA64000000
9020000000
5020000000
503FA6A000
5026152400
9022001800
8026001800
C025552400
6A9A56A000
ENDCHAR
STARTCHAR ldotaccent
ENCODING 320
SWIDTH 611 0
DWIDTH 20 0
BBX 18 23 1 0
BITMAP
0540000000
6564000000
5014000000
2020000000
2020000000
2020000000
6020000000
A960000000
9564000500
5020006590
5020006050
6020002050
5020006050
5020001A80
AA64000000
9020000000
5020000000
503FA6A000
5026152400
9022001800
8026001800
C025552400
6A9A56A000
ENDCHAR
STARTCHAR Lslash
ENCODING 321
SWIDTH 505 0
DWIDTH 16 0
BBX 18 23 -1 0
BITMAP
0015000000
00A5900000
0080600000
0080500000
0080900000
0080900000
0080900000
0195500000
0195690000
0180A64000
2A80818000
5080808000
5080954000
6180A50000
2AEA500000
0580500000
0080800000
0080AEAA80
0180880080
0140890050
0240980090
0240A5A980
00AA994540
ENDCHAR
STARTCHAR lslash
ENCODING 322
SWIDTH 505 0
DWIDTH 16 0
BBX 18 23 -1 0
BITMAP
0015000000
00A5900000
0080600000
0080500000
0080900000
0080900000
0080900000
0195500000
0195690000
0180A64000
2A80818000
5080808000
5080954000
6180A50000
2AEA500000
0580500000
0080800000
0080AEAA80
0180880080
0140890050
0240980090
0240A5A980
00AA994540
ENDCHAR
STARTCHAR Nacute
ENCODING 323
SWIDTH 598 0
DWIDTH 19 0
BBX 17 30 1 0
BITMAP
00000A4000
0000189000
0000206000
0000518000
0001820000
0002490000
0000A80000
0540001500
69B9019680
501A020080
2026014080
2022014080
2021814180
6020924080
A521635480
A56D235480
9020160080
50200A0180
60340B4140
6028034180
5029018080
AA6668E980
9023808080
5021805180
5020902140
5020601940
9020200A40
8020200980
C024196480
6A9006EA40
ENDCHAR
STARTCHAR nacute
ENCODING 324
SWIDTH 598 0
DWIDTH 19 0
BBX 17 30 1 0
BITMAP
00000A4000
0000189000
0000206000
0000518000
0001820000
0002490000
0000A80000
0540001500
69B9019680
501A020080
2026014080
2022014080
2021814180
6020924080
A521635480
A56D235480
9020160080
50200A0180
60340B4140
6028034180
5029018080
AA6668E980
9023808080
5021805180
5020902140
5020601940
9020200A40
8020200980
C024196480
6A9006EA40
ENDCHAR
STARTCHAR Ncommaaccent
ENCODING 325
SWIDTH 598 0
DWIDTH 19 0
BBX 17 31 1 -8
BITMAP
0540001500
69B9019680
501A020080
2026014080
2022014080
2021814180
6020924080
A521635480
A56D235480
9020160080
50200A0180
60340B4140
6028034180
5029018080
AA6668E980
9023808080
5021805180
5020902140
5020601940
9020200A40
8020200980
C024196480
6A9006EA40
0000000000
0002900000
0006240000
0008180000
0014600000
0060800000
0092400000
002A000000
ENDCHAR
STARTCHAR ncommaaccent
ENCODING 326
SWIDTH 598 0
DWIDTH 19 0
BBX 17 31 1 -8
BITMAP
0540001500
69B9019680
501A020080
2026014080
2022014080
2021814180
6020924080
A521635480
A56D235480
9020160080
50200A0180
60340B4140
6028034180
5029018080
AA6668E980
9023808080
5021805180
5020902140
5020601940
9020200A40
8020200980
C024196480
6A9006EA40
0000000000
0002900000
0006240000
0008180000
0014600000
0060800000
0092400000
002A000000
ENDCHAR
STARTCHAR Ncaron
ENCODING 327
SWIDTH 598 0
DWIDTH 19 0
BBX 17 32 1 0
BITMAP
0004010000
006A0A9000
0081582000
0050A06000
0020A08000
0018220000
00081A0000
00052C0000
0002A40000
0540001500
69B9019680
501A020080
2026014080
2022014080
2021814180
6020924080
A521635480
A56D235480
9020160080
50200A0180
60340B4140
6028034180
5029018080
AA6668E980
9023808080
5021805180
5020902140
5020601940
9020200A40
8020200980
C024196480
6A9006EA40
ENDCHAR
STARTCHAR ncaron
ENCODING 328
SWIDTH 598 0
DWIDTH 19 0
BBX 17 32 1 0
BITMAP
0004010000
006A0A9000
0081582000
0050A06000
0020A08000
0018220000
00081A0000
00052C0000
0002A40000
0540001500
69B9019680
501A020080
2026014080
2022014080
2021814180
6020924080
A521635480
A56D235480
9020160080
50200A0180
60340B4140
6028034180
5029018080
AA6668E980
9023808080
5021805180
5020902140
5020601940
9020200A40
8020200980
C024196480
6A9006EA40
ENDCHAR
STARTCHAR napostrophe
ENCODING 329
SWIDTH 807 0
DWIDTH 26 0
BBX 25 23 0 0
BITMAP
01400540005400
06A065B8029640
08148029020080
18245026020180
20805022020140
82405062420240
96009020820140
18009521665580
0000D579265580
00008020260140
000080601A0240
000090700B0240
00009068070240
00008028064140
0000EA65A5E580
00008027408140
00008062408240
00008050806200
00008050902600
00008060600E40
00008020201940
00018030256180
00006A900AEA00
ENDCHAR
STARTCHAR Eng
ENCODING 330
SWIDTH 595 0
DWIDTH 19 0
BBX 17 32 1 -9
BITMAP
0540000000
69B900AA00
501A024180
2026020080
2022024080
2021814180
6020914180
A525624180
A56D220080
502017A880
50300B0080
60340B0180
5028030140
5029018140
AA66688140
9023808180
5021805080
5020903980
5020601880
9020200A40
8020200940
C024196540
6A90074140
000003A180
0001AA5880
02A9900980
0940200A00
0800200800
080016A800
0506A80000
02A4000000
0040000000
ENDCHAR
STARTCHAR eng
ENCODING 331
SWIDTH 595 0
DWIDTH 19 0
BBX 17 32 1 -9
BITMAP
0540000000
69B900AA00
501A024180
2026020080
2022024080
2021814180
6020914180
A525624180
A56D220080
502017A880
50300B0080
60340B0180
5028030140
5029018140
AA66688140
9023808180
5021805080
5020903980
5020601880
9020200A40
8020200940
C024196540
6A90074140
000003A180
0001AA5880
02A9900980
0940200A00
0800200800
080016A800
0506A80000
02A4000000
0040000000
ENDCHAR
STARTCHAR Omacron
ENCODING 332
SWIDTH 612 0
DWIDTH 20 0
BBX 19 29 0 -1
BITMAP
0001000000
000AAAA000
0008001400
0008102400
0006AAA000
0190000000
061ABE6A40
05001556A0
0900140190
0500240190
03AA554290
064265AA50
0A42008420
0D6600EA60
080200C020
0805009020
0809005020
0808006020
1909006024
29A9006A98
2408006014
2418002664
2019BAA9A4
6019140074
9014080028
656408006C
1E9005AFF4
096AA90540
0290000000
ENDCHAR
STARTCHAR omacron
ENCODING 333
SWIDTH 612 0
DWIDTH 20 0
BBX 19 29 0 -1
BITMAP
0001000000
000AAAA000
0008001400
0008102400
0006AAA000
0190000000
061ABE6A40
05001556A0
0900140190
0500240190
03AA554290
064265AA50
0A42008420
0D6600EA60
080200C020
0805009020
0809005020
0808006020
1909006024
29A9006A98
2408006014
2418002664
2019BAA9A4
6019140074
9014080028
656408006C
1E9005AFF4
096AA90540
0290000000
ENDCHAR
STARTCHAR Obreve
ENCODING 334
SWIDTH 612 0
DWIDTH 20 0
BBX 19 32 0 -1
BITMAP
0006405000
0024825900
0020820900
0024820800
00146A9400
0014507400
000A907000
0001AA8000
0190000000
061ABE6A40
05001556A0
0900140190
0500240190
03AA554290
064265AA50
0A42008420
0D6600EA60
080200C020
0805009020
0809005020
0808006020
1909006024
29A9006A98
2408006014
2418002664
2019BAA9A4
6019140074
9014080028
656408006C
1E9005AFF4
096AA90540
0290000000
ENDCHAR
STARTCHAR obreve
ENCODING 335
SWIDTH 612 0
DWIDTH 20 0
BBX 19 32 0 -1
BITMAP
0006405000
0024825900
0020820900
0024820800
00146A9400
0014507400
000A907000
0001AA8000
0190000000
061ABE6A40
05001556A0
0900140190
0500240190
03AA554290
064265AA50
0A42008420
0D6600EA60
080200C020
0805009020
0809005020
0808006020
1909006024
29A9006A98
2408006014
2418002664
2019BAA9A4
6019140074
9014080028
656408006C
1E9005AFF4
096AA90540
0290000000
ENDCHAR
STARTCHAR Ohungarumlaut
ENCODING 336
SWIDTH 612 0
DWIDTH 20 0
BBX 19 31 0 -1
BITMAP
0000290A40
0000624850
000081A420
0001466080
0006098200
0009254900
0002A0A800
0190000000
061ABE6A40
05001556A0
0900140190
0500240190
03AA554290
064265AA50
0A42008420
0D6600EA60
080200C020
0805009020
0809005020
0808006020
1909006024
29A9006A98
2408006014
2418002664
2019BAA9A4
6019140074
9014080028
656408006C
1E9005AFF4
096AA90540
0290000000
ENDCHAR
STARTCHAR ohungarumlaut
ENCODING 337
SWIDTH 612 0
DWIDTH 20 0
BBX 19 31 0 -1
BITMAP
0000290A40
0000624850
000081A420
0001466080
0006098200
0009254900
0002A0A800
0190000000
061ABE6A40
05001556A0
0900140190
0500240190
03AA554290
064265AA50
0A42008420
0D6600EA60
080200C020
0805009020
0809005020
0808006020
1909006024
29A9006A98
2408006014
2418002664
2019BAA9A4
6019140074
9014080028
656408006C
1E9005AFF4
096AA90540
0290000000
ENDCHAR
STARTCHAR OE
ENCODING 338
SWIDTH 831 0
DWIDTH 27 0
BBX 27 24 0 -1
BITMAP
01900005400000
061ABE7EAAEAA0
05001556248014
09001401608018
05002401608014
03AA5542356A60
064265BA355050
0A4200A9200000
0D660095600000
08020090396800
08050050254900
08090050200500
08080050200500
19090090254900
29A900AA656800
24080090200000
241800A8250000
2019BA963AAA90
60192002214420
90142402214020
65641402210020
1E9006AA296560
096AA96A955580
02900000000000
ENDCHAR
STARTCHAR oe
ENCODING 339
SWIDTH 831 0
DWIDTH 27 0
BBX 27 24 0 -1
BITMAP
01900005400000
061ABE7EAAEAA0
05001556248014
09001401608018
05002401608014
03AA5542356A60
064265BA355050
0A4200A9200000
0D660095600000
08020090396800
08050050254900
08090050200500
08080050200500
19090090254900
29A900AA656800
24080090200000
241800A8250000
2019BA963AAA90
60192002214420
90142402214020
65641402210020
1E9006AA296560
096AA96A955580
02900000000000
ENDCHAR
STARTCHAR Racute
ENCODING 340
SWIDTH 532 0
DWIDTH 17 0
BBX 17 31 1 -1
BITMAP
00001A0000
0000218000
0000508000
0000824000
0002090000
0002180000
0041A00000
02A0000000
1D1A400000
6801780000
6800264000
2800206900
26A4500200
602A400200
5021A90500
BA641A9C00
9020A06900
5027401800
503AE99000
6022074000
5029020000
9426018000
AA66805000
9029862000
5034742400
5020200800
9020180600
8020090240
8020060200
9560025800
1A40005000
ENDCHAR
STARTCHAR racute
ENCODING 341
SWIDTH 532 0
DWIDTH 17 0
BBX 17 31 1 -1
BITMAP
00001A0000
0000218000
0000508000
0000824000
0002090000
0002180000
0041A00000
02A0000000
1D1A400000
6801780000
6800264000
2800206900
26A4500200
602A400200
5021A90500
BA641A9C00
9020A06900
5027401800
503AE99000
6022074000
5029020000
9426018000
AA66805000
9029862000
5034742400
5020200800
9020180600
8020090240
8020060200
9560025800
1A40005000
ENDCHAR
STARTCHAR Rcommaaccent
ENCODING 342
SWIDTH 532 0
DWIDTH 17 0
BBX 17 32 1 -8
BITMAP
0040000000
02A0000000
1D1A400000
6801780000
6800264000
2800206900
26A4500200
602A400200
5021A90500
BA641A9C00
9020A06900
5027401800
503AE99000
6022074000
5029020000
9426018000
AA66805000
9029862000
5034742400
5020200800
9020180600
8020090240
8020060200
9560025800
1A40005000
000A400000
0018900000
0020600000
0051800000
0182000000
0248000000
00A4000000
ENDCHAR
STARTCHAR rcommaaccent
ENCODING 343
SWIDTH 532 0
DWIDTH 17 0
BBX 17 32 1 -8
BITMAP
0040000000
02A0000000
1D1A400000
6801780000
6800264000
2800206900
26A4500200
602A400200
5021A90500
BA641A9C00
9020A06900
5027401800
503AE99000
6022074000
5029020000
9426018000
AA66805000
9029862000
5034742400
5020200800
9020180600
8020090240
8020060200
9560025800
1A40005000
000A400000
0018900000
0020600000
0051800000
0182000000
0248000000
00A4000000
ENDCHAR
STARTCHAR Rcaron
ENCODING 344
SWIDTH 532 0
DWIDTH 17 0
BBX 17 33 1 -1
BITMAP
0010040000
01A82A4000
0208508000
0242818000
0082420000
0050880000
0020680000
0014B00000
004A900000
02A0000000
1D1A400000
6801780000
6800264000
2800206900
26A4500200
602A400200
5021A90500
BA641A9C00
9020A06900
5027401800
503AE99000
6022074000
5029020000
9426018000
AA66805000
9029862000
5034742400
5020200800
9020180600
8020090240
8020060200
9560025800
1A40005000
ENDCHAR
STARTCHAR rcaron
ENCODING 345
SWIDTH 532 0
DWIDTH 17 0
BBX 17 33 1 -1
BITMAP
0010040000
01A82A4000
0208508000
0242818000
0082420000
0050880000
0020680000
0014B00000
004A900000
02A0000000
1D1A400000
6801780000
6800264000
2800206900
26A4500200
602A400200
5021A90500
BA641A9C00
9020A06900
5027401800
503AE99000
6022074000
5029020000
9426018000
AA66805000
9029862000
5034742400
5020200800
9020180600
8020090240
8020060200
9560025800
1A40005000
ENDCHAR
STARTCHAR Sacute
ENCODING 346
SWIDTH 442 0
DWIDTH 14 0
BBX 14 32 0 -1
BITMAP
0000A400
00014800
00020500
00091800
00146000
00208000
000A4000
00000000
00051680
0AABA450
25820020
39620020
60211560
901AA540
24090000
08060000
09054000
02648000
02808000
01806000
00501800
00200900
0018A600
000A4200
00060180
006B4090
6A588020
80089020
80085090
8005BF40
66AA0000
14000000
ENDCHAR
STARTCHAR sacute
ENCODING 347
SWIDTH 442 0
DWIDTH 14 0
BBX 14 32 0 -1
BITMAP
0000A400
00014800
00020500
00091800
00146000
00208000
000A4000
00000000
00051680
0AABA450
25820020
39620020
60211560
901AA540
24090000
08060000
09054000
02648000
02808000
01806000
00501800
00200900
0018A600
000A4200
00060180
006B4090
6A588020
80089020
80085090
8005BF40
66AA0000
14000000
ENDCHAR
STARTCHAR Scircumflex
ENCODING 348
SWIDTH 442 0
DWIDTH 14 0
BBX 14 33 0 -1
BITMAP
002A8000
0020D000
0080A000
01821400
060A0900
08194200
05208200
02906800
00000000
00051680
0AABA450
25820020
39620020
60211560
901AA540
24090000
08060000
09054000
02648000
02808000
01806000
00501800
00200900
0018A600
000A4200
00060180
006B4090
6A588020
80089020
80085090
8005BF40
66AA0000
14000000
ENDCHAR
STARTCHAR scircumflex
ENCODING 349
SWIDTH 442 0
DWIDTH 14 0
BBX 14 33 0 -1
BITMAP
002A8000
0020D000
0080A000
01821400
060A0900
08194200
05208200
02906800
00000000
00051680
0AABA450
25820020
39620020
60211560
901AA540
24090000
08060000
09054000
02648000
02808000
01806000
00501800
00200900
0018A600
000A4200
00060180
006B4090
6A588020
80089020
80085090
8005BF40
66AA0000
14000000
ENDCHAR
STARTCHAR Scedilla
ENCODING 350
SWIDTH 442 0
DWIDTH 14 0
BBX 14 30 0 -7
BITMAP
00051680
0AABA450
25820020
39620020
60211560
901AA540
24090000
08060000
09054000
02648000
02808000
01806000
00501800
00200900
0018A600
000A4200
00060180
006B4090
6A588020
80089020
80085090
8005BF40
66AA2000
14052400
00051400
016D1400
0242B000
0201A000
02690000
00900000
ENDCHAR
STARTCHAR scedilla
ENCODING 351
SWIDTH 442 0
DWIDTH 14 0
BBX 14 30 0 -7
BITMAP
00051680
0AABA450
25820020
39620020
60211560
901AA540
24090000
08060000
09054000
02648000
02808000
01806000
00501800
00200900
0018A600
000A4200
00060180
006B4090
6A588020
80089020
80085090
8005BF40
66AA2000
14052400
00051400
016D1400
0242B000
0201A000
02690000
00900000
ENDCHAR
STARTCHAR Scaron
ENCODING 352
SWIDTH 442 0
DWIDTH 14 0
BBX 14 33 0 -1
BITMAP
00401000
06A0A900
08148200
060A4200
02060800
00822400
0081A000
0052D000
002A4000
00051680
0AABA450
25820020
39620020
60211560
901AA540
24090000
08060000
09054000
02648000
02808000
01806000
00501800
00200900
0018A600
000A4200
00060180
006B4090
6A588020
80089020
80085090
8005BF40
66AA0000
14000000
ENDCHAR
STARTCHAR scaron
ENCODING 353
SWIDTH 442 0
DWIDTH 14 0
BBX 14 33 0 -1
BITMAP
00401000
06A0A900
08148200
060A4200
02060800
00822400
0081A000
0052D000
002A4000
00051680
0AABA450
25820020
39620020
60211560
901AA540
24090000
08060000
09054000
02648000
02808000
01806000
00501800
00200900
0018A600
000A4200
00060180
006B4090
6A588020
80089020
80085090
8005BF40
66AA0000
14000000
ENDCHAR
STARTCHAR Tcommaaccent
ENCODING 354
SWIDTH 453 0
DWIDTH 15 0
BBX 16 31 -1 -8
BITMAP
09455014
25A9EA99
60009006
60009002
20004005
2AAEAEA8
04080800
00180800
002A5900
00295900
00140800
00180800
00180800
00140800
00154900
0029A900
00140800
00140800
00140800
00140800
00200800
00300900
001AA400
00000000
000A4000
00189000
00206000
00918000
01820000
02480000
00A40000
ENDCHAR
STARTCHAR tcommaaccent
ENCODING 355
SWIDTH 453 0
DWIDTH 15 0
BBX 16 31 -1 -8
BITMAP
09455014
25A9EA99
60009006
60009002
20004005
2AAEAEA8
04080800
00180800
002A5900
00295900
00140800
00180800
00180800
00140800
00154900
0029A900
00140800
00140800
00140800
00140800
00200800
00300900
001AA400
00000000
000A4000
00189000
00206000
00918000
01820000
02480000
00A40000
ENDCHAR
STARTCHAR Tcaron
ENCODING 356
SWIDTH 453 0
DWIDTH 15 0
BBX 16 32 -1 0
BITMAP
00000100
00A90A80
01822460
00816090
0020D180
00245200
00082900
00086800
0006A400
09455014
25A9EA99
60009006
60009002
20004005
2AAEAEA8
04080800
00180800
002A5900
00295900
00140800
00180800
00180800
00140800
00154900
0029A900
00140800
00140800
00140800
00140800
00200800
00300900
001AA400
ENDCHAR
STARTCHAR tcaron
ENCODING 357
SWIDTH 453 0
DWIDTH 15 0
BBX 16 32 -1 0
BITMAP
00000100
00A90A80
01822460
00816090
0020D180
00245200
00082900
00086800
0006A400
09455014
25A9EA99
60009006
60009002
20004005
2AAEAEA8
04080800
00180800
002A5900
00295900
00140800
00180800
00180800
00140800
00154900
0029A900
00140800
00140800
00140800
00140800
00200800
00300900
001AA400
ENDCHAR
STARTCHAR Tbar
ENCODING 358
SWIDTH 455 0
DWIDTH 15 0
BBX 16 24 -1 -1
BITMAP
04000000
2AAAEAA8
20009006
60005002
20008002
25AA6A99
09495814
00080800
00190900
002A9500
01A40800
025AAA90
05000020
09000020
06000060
02BEBA80
00140800
00140800
00140800
00140800
00240800
00300900
00196800
00015000
ENDCHAR
STARTCHAR tbar
ENCODING 359
SWIDTH 455 0
DWIDTH 15 0
BBX 16 24 -1 -1
BITMAP
04000000
2AAAEAA8
20009006
60005002
20008002
25AA6A99
09495814
00080800
00190900
002A9500
01A40800
025AAA90
05000020
09000020
06000060
02BEBA80
00140800
00140800
00140800
00140800
00240800
00300900
00196800
00015000
ENDCHAR
STARTCHAR Utilde
ENCODING 360
SWIDTH 583 0
DWIDTH 19 0
BBX 18 32 0 -1
BITMAP
0002A81A40
00020D2080
00080A6080
001421C140
0060A08200
0081542800
0052082800
00290AA400
0050001400
065A029680
0902430080
0502020080
0906024180
0905014180
0805014080
1D55025480
1956029580
1809024080
0808014080
1808018080
1408008080
2508018090
269801AA60
2008018050
201800AD50
2019AA9290
2019600290
90182001A0
6018200260
1E9006EA20
091AA86A80
0290000000
ENDCHAR
STARTCHAR utilde
ENCODING 361
SWIDTH 583 0
DWIDTH 19 0
BBX 18 32 0 -1
BITMAP
0002A81A40
00020D2080
00080A6080
001421C140
0060A08200
0081542800
0052082800
00290AA400
0050001400
065A029680
0902430080
0502020080
0906024180
0905014180
0805014080
1D55025480
1956029580
1809024080
0808014080
1808018080
1408008080
2508018090
269801AA60
2008018050
201800AD50
2019AA9290
2019600290
90182001A0
6018200260
1E9006EA20
091AA86A80
0290000000
ENDCHAR
STARTCHAR Umacron
ENCODING 362
SWIDTH 583 0
DWIDTH 19 0
BBX 18 28 0 -1
BITMAP
000AAA9000
0014002000
0014002000
000AAA9000
0050001400
065A029680
0902430080
0502020080
0906024180
0905014180
0805014080
1D55025480
1956029580
1809024080
0808014080
1808018080
1408008080
2508018090
269801AA60
2008018050
201800AD50
2019AA9290
2019600290
90182001A0
6018200260
1E9006EA20
091AA86A80
0290000000
ENDCHAR
STARTCHAR umacron
ENCODING 363
SWIDTH 583 0
DWIDTH 19 0
BBX 18 28 0 -1
BITMAP
000AAA9000
0014002000
0014002000
000AAA9000
0050001400
065A029680
0902430080
0502020080
0906024180
0905014180
0805014080
1D55025480
1956029580
1809024080
0808014080
1808018080
1408008080
2508018090
269801AA60
2008018050
201800AD50
2019AA9290
2019600290
90182001A0
6018200260
1E9006EA20
091AA86A80
0290000000
ENDCHAR
STARTCHAR Ubreve
ENCODING 364
SWIDTH 583 0
DWIDTH 19 0
BBX 18 32 0 -1
BITMAP
0019014000
0092066400
0082051400
0051482000
0021AA6000
002080D000
002A40D000
0006AA4000
0050001400
065A029680
0902430080
0502020080
0906024180
0905014180
0805014080
1D55025480
1956029580
1809024080
0808014080
1808018080
1408008080
2508018090
269801AA60
2008018050
201800AD50
2019AA9290
2019600290
90182001A0
6018200260
1E9006EA20
091AA86A80
0290000000
ENDCHAR
STARTCHAR ubreve
ENCODING 365
SWIDTH 583 0
DWIDTH 19 0
BBX 18 32 0 -1
BITMAP
0019014000
0092066400
0082051400
0051482000
0021AA6000
002080D000
002A40D000
0006AA4000
0050001400
065A029680
0902430080
0502020080
0906024180
0905014180
0805014080
1D55025480
1956029580
1809024080
0808014080
1808018080
1408008080
2508018090
269801AA60
2008018050
201800AD50
2019AA9290
2019600290
90182001A0
6018200260
1E9006EA20
091AA86A80
0290000000
ENDCHAR
STARTCHAR Uring
ENCODING 366
SWIDTH 583 0
DWIDTH 19 0
BBX 18 33 0 -1
BITMAP
0002AA4000
0009148000
0018148000
0020642000
0050882400
0026AA6000
002402A000
0025545000
0009568000
0050001400
065A029680
0902430080
0502020080
0906024180
0905014180
0805014080
1D55025480
1956029580
1809024080
0808014080
1808018080
1408008080
2508018090
269801AA60
2008018050
201800AD50
2019AA9290
2019600290
90182001A0
6018200260
1E9006EA20
091AA86A80
0290000000
ENDCHAR
STARTCHAR uring
ENCODING 367
SWIDTH 583 0
DWIDTH 19 0
BBX 18 33 0 -1
BITMAP
0002AA4000
0009148000
0018148000
0020642000
0050882400
0026AA6000
002402A000
0025545000
0009568000
0050001400
065A029680
0902430080
0502020080
0906024180
0905014180
0805014080
1D55025480
1956029580
1809024080
0808014080
1808018080
1408008080
2508018090
269801AA60
2008018050
201800AD50
2019AA9290
2019600290
90182001A0
6018200260
1E9006EA20
091AA86A80
0290000000
ENDCHAR
STARTCHAR Uhungarumlaut
ENCODING 368
SWIDTH 583 0
DWIDTH 19 0
BBX 18 31 0 -1
BITMAP
0000A42900
0001896140
0002068180
0009198600
0018260800
0024852400
000A42A000
0050001400
065A029680
0902430080
0502020080
0906024180
0905014180
0805014080
1D55025480
1956029580
1809024080
0808014080
1808018080
1408008080
2508018090
269801AA60
2008018050
201800AD50
2019AA9290
2019600290
90182001A0
6018200260
1E9006EA20
091AA86A80
0290000000
ENDCHAR
STARTCHAR uhungarumlaut
ENCODING 369
SWIDTH 583 0
DWIDTH 19 0
BBX 18 31 0 -1
BITMAP
0000A42900
0001896140
0002068180
0009198600
0018260800
0024852400
000A42A000
0050001400
065A029680
0902430080
0502020080
0906024180
0905014180
0805014080
1D55025480
1956029580
1809024080
0808014080
1808018080
1408008080
2508018090
269801AA60
2008018050
201800AD50
2019AA9290
2019600290
90182001A0
6018200260
1E9006EA20
091AA86A80
0290000000
ENDCHAR
STARTCHAR Uogonek
ENCODING 370
SWIDTH 583 0
DWIDTH 19 0
BBX 18 31 0 -8
BITMAP
0050001400
065A029680
0902430080
0502020080
0906024180
0905014180
0805014080
1D55025480
1956029580
1809024080
0808014080
1808018080
1408008080
2508018090
269801AA60
2008018050
201800AD50
2019AA9290
2019600290
90182001A0
6018200260
1E9006EA20
091AA8AA90
0290008200
0000014500
0000020900
0000029A40
000000E060
0000002420
0000000990
0000000140
ENDCHAR
STARTCHAR uogonek
ENCODING 371
SWIDTH 583 0
DWIDTH 19 0
BBX 18 31 0 -8
BITMAP
0050001400
065A029680
0902430080
0502020080
0906024180
0905014180
0805014080
1D55025480
1956029580
1809024080
0808014080
1808018080
1408008080
2508018090
269801AA60
2008018050
201800AD50
2019AA9290
2019600290
90182001A0
6018200260
1E9006EA20
091AA8AA90
0290008200
0000014500
0000020900
0000029A40
000000E060
0000002420
0000000990
0000000140
ENDCHAR
STARTCHAR Wcircumflex
ENCODING 372
SWIDTH 735 0
DWIDTH 24 0
BBX 23 31 0 -1
BITMAP
00000AD00000
000024700000
000020640000
000081880000
000243420000
000209818000
000208514000
0000A02A0000
1A4000000A90
656001402418
C0200A642408
902020142008
602034082014
202468082020
201898099020
2698E956EA60
29088B428020
140986028060
080582028090
090341418080
050241564080
0206A9E79080
03A601C25980
020202920180
014202620240
008506260200
008805290200
009805280200
008905180200
0097E40A5600
001900016400
ENDCHAR
STARTCHAR wcircumflex
ENCODING 373
SWIDTH 735 0
DWIDTH 24 0
BBX 23 31 0 -1
BITMAP
00000AD00000
000024700000
000020640000
000081880000
000243420000
000209818000
000208514000
0000A02A0000
1A4000000A90
656001402418
C0200A642408
902020142008
602034082014
202468082020
201898099020
2698E956EA60
29088B428020
140986028060
080582028090
090341418080
050241564080
0206A9E79080
03A601C25980
020202920180
014202620240
008506260200
008805290200
009805280200
008905180200
0097E40A5600
001900016400
ENDCHAR
STARTCHAR Ycircumflex
ENCODING 374
SWIDTH 484 0
DWIDTH 16 0
BBX 18 31 -1 0
BITMAP
0002B40000
00092C0000
0008190000
0020620000
0090D08000
0082606000
0086145000
00680A8000
0000000000
068000A900
2950014640
6020024090
9018020080
6009050240
0802480600
0605A90900
0264618800
01C0601800
0090902400
0024806000
000A408000
0007408000
0005658000
0008064000
0008060000
0024080000
0060180000
00C0240000
0090200000
0065600000
0006800000
ENDCHAR
STARTCHAR ycircumflex
ENCODING 375
SWIDTH 484 0
DWIDTH 16 0
BBX 18 31 -1 0
BITMAP
0002B40000
00092C0000
0008190000
0020620000
0090D08000
0082606000
0086145000
00680A8000
0000000000
068000A900
2950014640
6020024090
9018020080
6009050240
0802480600
0605A90900
0264618800
01C0601800
0090902400
0024806000
000A408000
0007408000
0005658000
0008064000
0008060000
0024080000
0060180000
00C0240000
0090200000
0065600000
0006800000
ENDCHAR
STARTCHAR Ydieresis
ENCODING 376
SWIDTH 484 0
DWIDTH 16 0
BBX 18 28 -1 0
BITMAP
00AA5A9000
0241642400
0142142000
0082142000
00AA0A9000
0000000000
068000A900
2950014640
6020024090
9018020080
6009050240
0802480600
0605A90900
0264618800
01C0601800
0090902400
0024806000
000A408000
0007408000
0005658000
0008064000
0008060000
0024080000
0060180000
00C0240000
0090200000
0065600000
0006800000
ENDCHAR
STARTCHAR Zacute
ENCODING 377
SWIDTH 458 0
DWIDTH 15 0
BBX 16 30 -1 0
BITMAP
00000A40
00002480
00002090
00008240
00024500
00020800
0001A000
00000000
02AAEAA0
05008014
0800900D
0900801A
065A6AA9
0191D024
00028020
00026490
00060480
00080240
00180600
00600800
00A01400
01992000
02416000
06009000
0802EAA0
24068414
60089008
24088018
0A695A64
02959450
ENDCHAR
STARTCHAR zacute
ENCODING 378
SWIDTH 458 0
DWIDTH 15 0
BBX 16 30 -1 0
BITMAP
00000A40
00002480
00002090
00008240
00024500
00020800
0001A000
00000000
02AAEAA0
05008014
0800900D
0900801A
065A6AA9
0191D024
00028020
00026490
00060480
00080240
00180600
00600800
00A01400
01992000
02416000
06009000
0802EAA0
24068414
60089008
24088018
0A695A64
02959450
ENDCHAR
STARTCHAR Zdotaccent
ENCODING 379
SWIDTH 458 0
DWIDTH 15 0
BBX 16 29 -1 0
BITMAP
0006A800
000C0800
00090800
00050800
0006A400
00000000
00000000
02AAEAA0
05008014
0800900D
0900801A
065A6AA9
0191D024
00028020
00026490
00060480
00080240
00180600
00600800
00A01400
01992000
02416000
06009000
0802EAA0
24068414
60089008
24088018
0A695A64
02959450
ENDCHAR
STARTCHAR zdotaccent
ENCODING 380
SWIDTH 458 0
DWIDTH 15 0
BBX 16 29 -1 0
BITMAP
0006A800
000C0800
00090800
00050800
0006A400
00000000
00000000
02AAEAA0
05008014
0800900D
0900801A
065A6AA9
0191D024
00028020
00026490
00060480
00080240
00180600
00600800
00A01400
01992000
02416000
06009000
0802EAA0
24068414
60089008
24088018
0A695A64
02959450
ENDCHAR
STARTCHAR Zcaron
ENCODING 381
SWIDTH 458 0
DWIDTH 15 0
BBX 16 32 -1 0
BITMAP
00100000
00A91A80
01422050
00816090
0060C140
00205200
00182800
00086800
0006A000
00000000
02AAEAA0
05008014
0800900D
0900801A
065A6AA9
0191D024
00028020
00026490
00060480
00080240
00180600
00600800
00A01400
01992000
02416000
06009000
0802EAA0
24068414
60089008
24088018
0A695A64
02959450
ENDCHAR
STARTCHAR zcaron
ENCODING 382
SWIDTH 458 0
DWIDTH 15 0
BBX 16 32 -1 0
BITMAP
00100000
00A91A80
01422050
00816090
0060C140
00205200
00182800
00086800
0006A000
00000000
02AAEAA0
05008014
0800900D
0900801A
065A6AA9
0191D024
00028020
00026490
00060480
00080240
00180600
00600800
00A01400
01992000
02416000
06009000
0802EAA0
24068414
60089008
24088018
0A695A64
02959450
ENDCHAR
STARTCHAR AEacute
ENCODING 508
SWIDTH 797 0
DWIDTH 26 0
BBX 27 31 -1 0
BITMAP
00000001A00000
00000002080000
00000006090000
00000008240000
00000024500000
00000021800000
0000001A000000
00000000000000
00000005400000
00001565AAEAA0
000026D0248024
00002020208014
00009018208014
00008020356A60
00024090355050
000A01E5200000
0009A2D5600000
00181680396800
00240950254900
00201850200500
00902050200500
01C07590254800
026855EA656800
02058080200000
09018090250000
18036A907BAA90
20094090614420
90080080214020
60140080220020
29240080396560
0690006A955680
ENDCHAR
STARTCHAR aeacute
ENCODING 509
SWIDTH 797 0
DWIDTH 26 0
BBX 27 31 -1 0
BITMAP
00000001A00000
00000002080000
00000006090000
00000008240000
00000024500000
00000021800000
0000001A000000
00000000000000
00000005400000
00001565AAEAA0
000026D0248024
00002020208014
00009018208014
00008020356A60
00024090355050
000A01E5200000
0009A2D5600000
00181680396800
00240950254900
00201850200500
00902050200500
01C07590254800
026855EA656800
02058080200000
09018090250000
18036A907BAA90
20094090614420
90080080214020
60140080220020
29240080396560
0690006A955680
ENDCHAR
STARTCHAR Oslashacute
ENCODING 510
SWIDTH 612 0
DWIDTH 20 0
BBX 19 31 0 -1
BITMAP
000001A000
0000021800
0000090800
0000182000
0000209000
0000614000
00002A0000
0190000000
061ABE6B80
0500156090
0900145020
0500248060
03AA5640D0
06426A0290
0A421C0620
0D66268A60
0802205820
0805902420
080980A020
080A01A020
1909026024
29AE066A98
2425C86014
2420582664
20902EA9A4
6180A40074
9601880028
680208006C
180605AFF4
090AA90540
02A8000000
ENDCHAR
STARTCHAR oslashacute
ENCODING 511
SWIDTH 612 0
DWIDTH 20 0
BBX 19 31 0 -1
BITMAP
000001A000
0000021800
0000090800
0000182000
0000209000
0000614000
00002A0000
0190000000
061ABE6B80
0500156090
0900145020
0500248060
03AA5640D0
06426A0290
0A421C0620
0D66268A60
0802205820
0805902420
080980A020
080A01A020
1909026024
29AE066A98
2425C86014
2420582664
20902EA9A4
6180A40074
9601880028
680208006C
180605AFF4
090AA90540
02A8000000
ENDCHAR
STARTCHAR dotlessj
ENCODING 567
SWIDTH 482 0
DWIDTH 15 0
BBX 16 24 -1 -1
BITMAP
00000150
00001A69
00001805
00000809
00000808
00000808
00001808
00001959
00002959
00001408
00001808
02801808
19501808
20201408
50082A95
64025409
09059408
02247808
01D02808
00900A08
00240248
00080209
00060BA4
0002A400
ENDCHAR
STARTCHAR circumflex
ENCODING 710
SWIDTH 308 0
DWIDTH 10 0
BBX 10 8 0 24
BITMAP
02B800
051C00
081A00
242240
60A080
816020
821860
290A80
ENDCHAR
STARTCHAR caron
ENCODING 711
SWIDTH 310 0
DWIDTH 10 0
BBX 10 9 0 24
BITMAP
040100
6A0A90
821420
90A060
209080
142200
081A00
052C00
02A400
ENDCHAR
STARTCHAR breve
ENCODING 728
SWIDTH 333 0
DWIDTH 11 0
BBX 11 8 0 24
BITMAP
190140
920664
820514
524820
21AA60
2080D0
3A40C0
06AA40
ENDCHAR
STARTCHAR dotaccent
ENCODING 729
SWIDTH 166 0
DWIDTH 5 0
BBX 5 5 0 24
BITMAP
6A80
8080
5080
5080
2A40
ENDCHAR
STARTCHAR ring
ENCODING 730
SWIDTH 309 0
DWIDTH 10 0
BBX 10 9 0 24
BITMAP
06AA00
082140
242080
60A050
825820
66A960
640680
215480
195640
ENDCHAR
STARTCHAR ogonek
ENCODING 731
SWIDTH 226 0
DWIDTH 7 0
BBX 7 11 0 -8
BITMAP
0500
1980
1460
2080
6180
8240
66A0
3818
0A08
0198
0050
ENDCHAR
STARTCHAR tilde
ENCODING 732
SWIDTH 410 0
DWIDTH 13 0
BBX 13 8 0 24
BITMAP
02B82A40
051D2080
081A5080
24228240
60A08500
81606800
92187400
290AE000
ENDCHAR
STARTCHAR hungarumlaut
ENCODING 733
SWIDTH 361 0
DWIDTH 12 0
BBX 12 7 0 24
BITMAP
0290A4
092149
082605
246918
919860
822080
690A40
ENDCHAR
STARTCHAR uni0312
ENCODING 786
SWIDTH 202 0
DWIDTH 6 0
BBX 7 8 0 15
BITMAP
0140
06A0
0814
1824
2080
8240
9600
1800
ENDCHAR
STARTCHAR uni0315
ENCODING 789
SWIDTH 202 0
DWIDTH 6 0
BBX 7 8 0 15
BITMAP
0140
06A0
0814
1824
2080
8240
9600
1800
ENDCHAR
STARTCHAR uni0326
ENCODING 806
SWIDTH 201 0
DWIDTH 6 0
BBX 7 7 0 -8
BITMAP
0290
0520
0814
2460
5180
8200
6900
ENDCHAR
STARTCHAR Wgrave
ENCODING 7808
SWIDTH 735 0
DWIDTH 24 0
BBX 23 30 0 -1
BITMAP
00006A000000
000082000000
000081400000
000060800000
000024900000
000008500000
00000A800000
1A4000000A90
656001402418
C0200A642408
902020142008
602034082014
202468082020
201898099020
2698E956EA60
29088B428020
140986028060
080582028090
090341418080
050241564080
0206A9E79080
03A601C25980
020202920180
014202620240
008506260200
008805290200
009805280200
008905180200
0097E40A5600
001900016400
ENDCHAR
STARTCHAR wgrave
ENCODING 7809
SWIDTH 735 0
DWIDTH 24 0
BBX 23 30 0 -1
BITMAP
00006A000000
000082000000
000081400000
000060800000
000024900000
000008500000
00000A800000
1A4000000A90
656001402418
C0200A642408
902020142008
602034082014
202468082020
201898099020
2698E956EA60
29088B428020
140986028060
080582028090
090341418080
050241564080
0206A9E79080
03A601C25980
020202920180
014202620240
008506260200
008805290200
009805280200
008905180200
0097E40A5600
001900016400
ENDCHAR
STARTCHAR Wacute
ENCODING 7810
SWIDTH 735 0
DWIDTH 24 0
BBX 23 30 0 -1
BITMAP
0000001A0000
000000218000
000000908000
000001820000
000002080000
000006140000
000002A00000
1A4000000A90
656001402418
C0200A642408
902020142008
602034082014
202468082020
201898099020
2698E956EA60
29088B428020
140986028060
080582028090
090341418080
050241564080
0206A9E79080
03A601C25980
020202920180
014202620240
008506260200
008805290200
009805280200
008905180200
0097E40A5600
001900016400
ENDCHAR
STARTCHAR wacute
ENCODING 7811
SWIDTH 735 0
DWIDTH 24 0
BBX 23 30 0 -1
BITMAP
0000001A0000
000000218000
000000908000
000001820000
000002080000
000006140000
000002A00000
1A4000000A90
656001402418
C0200A642408
902020142008
602034082014
202468082020
201898099020
2698E956EA60
29088B428020
140986028060
080582028090
090341418080
050241564080
0206A9E79080
03A601C25980
020202920180
014202620240
008506260200
008805290200
009805280200
008905180200
0097E40A5600
001900016400
ENDCHAR
STARTCHAR Wdieresis
ENCODING 7812
SWIDTH 735 0
DWIDTH 24 0
BBX 23 28 0 -1
BITMAP
0006A86A4000
000909909000
000508508000
000208508000
0002A82A4000
1A4000000A90
656001402418
C0200A642408
902020142008
602034082014
202468082020
201898099020
2698E956EA60
29088B428020
140986028060
080582028090
090341418080
050241564080
0206A9E79080
03A601C25980
020202920180
014202620240
008506260200
008805290200
009805280200
008905180200
0097E40A5600
001900016400
ENDCHAR
STARTCHAR wdieresis
ENCODING 7813
SWIDTH 735 0
DWIDTH 24 0
BBX 23 28 0 -1
BITMAP
0006A86A4000
000909909000
000508508000
000208508000
0002A82A4000
1A4000000A90
656001402418
C0200A642408
902020142008
602034082014
202468082020
201898099020
2698E956EA60
29088B428020
140986028060
080582028090
090341418080
050241564080
0206A9E79080
03A601C25980
020202920180
014202620240
008506260200
008805290200
009805280200
008905180200
0097E40A5600
001900016400
ENDCHAR
STARTCHAR Ygrave
ENCODING 7922
SWIDTH 484 0
DWIDTH 16 0
BBX 18 29 -1 0
BITMAP
001A800000
0020800000
0020500000
0018200000
0009240000
0002140000
0002A00000
068000A900
2950014640
6020024090
9018020080
6009050240
0802480600
0605A90900
0264618800
01C0601800
0090902400
0024806000
000A408000
0007408000
0005658000
0008064000
0008060000
0024080000
0060180000
00C0240000
0090200000
0065600000
0006800000
ENDCHAR
STARTCHAR ygrave
ENCODING 7923
SWIDTH 484 0
DWIDTH 16 0
BBX 18 29 -1 0
BITMAP
001A800000
0020800000
0020500000
0018200000
0009240000
0002140000
0002A00000
068000A900
2950014640
6020024090
9018020080
6009050240
0802480600
0605A90900
0264618800
01C0601800
0090902400
0024806000
000A408000
0007408000
0005658000
0008064000
0008060000
0024080000
0060180000
00C0240000
0090200000
0065600000
0006800000
ENDCHAR
STARTCHAR endash
ENCODING 8211
SWIDTH 591 0
DWIDTH 19 0
BBX 17 7 1 7
BITMAP
6959590100
855996AA80
8008020080
8008020080
8104010080
6AAAAAAA40
0000000100
ENDCHAR
STARTCHAR emdash
ENCODING 8212
SWIDTH 726 0
DWIDTH 23 0
BBX 23 6 0 8
BITMAP
094050050000
216AAAABAAA0
200050020024
600050020014
200040010024
1AAAAAAAAAA0
ENDCHAR
STARTCHAR quoteleft
ENCODING 8216
SWIDTH 291 0
DWIDTH 9 0
BBX 9 14 0 10
BITMAP
005400
019740
014080
024080
020140
0A4200
09A200
140600
200800
601400
802000
902000
296000
054000
ENDCHAR
STARTCHAR quoteright
ENCODING 8217
SWIDTH 291 0
DWIDTH 9 0
BBX 9 14 0 10
BITMAP
005400
019740
014080
024080
020140
0A4200
09A200
140600
200800
601400
802000
902000
296000
054000
ENDCHAR
STARTCHAR quotesinglbase
ENCODING 8218
SWIDTH 228 0
DWIDTH 7 0
BBX 8 9 -1 -4
BITMAP
0040
02A8
0209
0802
2409
9024
8060
5080
2A40
ENDCHAR
STARTCHAR quotedblleft
ENCODING 8220
SWIDTH 532 0
DWIDTH 17 0
BBX 17 14 0 10
BITMAP
0054005400
0197429A00
0140820180
0240820180
0201450200
0A420D0600
09A2199500
1406200900
2008201800
6014902000
8020802000
9020802000
2960659000
0540054000
ENDCHAR
STARTCHAR quotedblright
ENCODING 8221
SWIDTH 532 0
DWIDTH 17 0
BBX 17 14 0 10
BITMAP
0054005400
0197429A00
0140820180
0240820180
0201450200
0A420D0600
09A2199500
1406200900
2008201800
6014902000
8020802000
9020802000
2960659000
0540054000
ENDCHAR
STARTCHAR quotedblbase
ENCODING 8222
SWIDTH 448 0
DWIDTH 14 0
BBX 15 9 -1 -4
BITMAP
00400100
02A80AA0
02090824
08022008
24099024
90264090
80620180
50814200
2A40A900
ENDCHAR
STARTCHAR dagger
ENCODING 8224
SWIDTH 453 0
DWIDTH 15 0
BBX 14 27 0 -2
BITMAP
00054000
002AA000
00501400
00602400
00202000
09602140
25A03A90
60602020
50652020
60A56420
26D02A90
05502040
00602000
00602000
00502000
00502000
00AA6400
00956400
00502000
00502000
00502000
00502000
00902000
00802000
00C02400
0065A000
00154000
ENDCHAR
STARTCHAR daggerdbl
ENCODING 8225
SWIDTH 462 0
DWIDTH 15 0
BBX 14 27 0 -2
BITMAP
00054000
002AA400
00601800
00201400
00202400
09602040
25A02AA0
20202020
60652420
20A59420
26902A90
05602040
00202000
00202000
00202000
00602400
09AA5440
25A55AA0
20602020
60602020
20602020
26A03A90
05502040
00802400
00801400
0065A000
00064000
ENDCHAR
STARTCHAR bullet
ENCODING 8226
SWIDTH 275 0
DWIDTH 9 0
BBX 5 6 2 9
BITMAP
0400
A680
8080
8080
8080
6A00
ENDCHAR
STARTCHAR ellipsis
ENCODING 8230
SWIDTH 605 0
DWIDTH 19 0
BBX 19 6 0 -1
BITMAP
1A40690690
6062421818
2052020814
2052420814
2592960964
0540540150
ENDCHAR
STARTCHAR perthousand
ENCODING 8240
SWIDTH 1249 0
DWIDTH 40 0
BBX 40 22 0 0
BITMAP
0AAA9001400000000000
1A002409600000000000
20802808080000000000
20A95808140000000000
20824814200000000000
20820820200000000000
20820820500000000000
21820869500000000000
296A0850500000000000
58020550814000050000
28025880885A60156A90
06AAA0815A80182A4034
00000081205022108028
00000192206AA120AA88
00000206105145208208
00000202105145208208
00000205105145208208
0000050822A605269608
00000808251602581608
00000808280202580109
000006681901A82802A4
000000000195A0029590
ENDCHAR
STARTCHAR guilsinglleft
ENCODING 8249
SWIDTH 359 0
DWIDTH 12 0
BBX 11 15 0 4
BITMAP
000100
000990
002424
019014
190024
200190
600900
302400
299800
214240
190060
028014
006024
0018A0
000640
ENDCHAR
STARTCHAR guilsinglright
ENCODING 8250
SWIDTH 359 0
DWIDTH 12 0
BBX 10 15 1 4
BITMAP
050000
264000
909000
801800
900680
280060
024020
0090A0
0266A0
090420
600280
801900
906000
258000
0A0000
ENDCHAR
STARTCHAR fraction
ENCODING 8260
SWIDTH 266 0
DWIDTH 9 0
BBX 9 22 0 0
BITMAP
001400
009600
008180
004200
014200
020200
020500
069500
040800
080800
081400
081400
142000
292000
206000
206000
209000
508000
808000
808000
668000
040000
ENDCHAR
STARTCHAR Euro
ENCODING 8364
SWIDTH 690 0
DWIDTH 22 0
BBX 21 24 0 -1
BITMAP
0000A4000000
00025AAE5600
000200085580
000200080080
000200080080
0002AA954180
009241A96A00
025B51400000
020659800000
020502400000
020502000000
01A902000000
1A9902000000
205D42000000
500DA6000000
600806000000
256808000600
095809BAA540
00200D540080
002008080080
002958080080
000A9005AA40
00061AA90000
000190000000
ENDCHAR
STARTCHAR partialdiff
ENCODING 8706
SWIDTH 519 0
DWIDTH 17 0
BBX 18 24 -1 -1
BITMAP
0000050000
0000AAC000
0002408000
0001408000
0000809000
0000806000
0000502000
000051B800
0000651800
0001A01800
000A240800
0064180800
01A0080900
06241C0600
640868AB00
5066890200
619A060200
2701920140
0A001B0080
0200024090
02A4014060
000A424190
0000A1EA00
00001A0000
ENDCHAR
STARTCHAR minus
ENCODING 8722
SWIDTH 467 0
DWIDTH 15 0
BBX 13 7 1 7
BITMAP
25590500
969AA980
80060080
80060080
80050080
AAAAAA40
14000100
ENDCHAR
STARTCHAR fi
ENCODING 64257
SWIDTH 741 0
DWIDTH 24 0
BBX 22 23 1 0
BITMAP
054000001500
65AAEAA09590
501480148060
202080188050
202080148090
20356AA08080
602550508090
A5200001A950
A56400019550
502968018090
502545008080
602006008080
602006008080
502549018090
AA696801EA50
902000014050
502000018080
502000008080
502000018080
902000014080
802000024090
C02400024090
6A900000AA40
ENDCHAR
STARTCHAR fl
ENCODING 64258
SWIDTH 942 0
DWIDTH 30 0
BBX 30 23 1 0
BITMAP
0540000015000000
65AAEAA095900000
5014801480600000
2020801880500000
2020801480900000
20356AA080800000
6025505080900000
A5200001A9500000
A564000195500000
5029680180900000
5025450080800000
6020060080800000
6020060080800000
5025490180900000
AA696801EA500000
9020000140500000
5020000180800000
5020000080AE9A80
5020000180885460
9020000140880020
8020000240980020
C024000240A55450
6A900000AAA95680
ENDCHAR
STARTCHAR .notdef
ENCODING -1
SWIDTH 200 0
DWIDTH 6 0
BBX 1 1 0 0
BITMAP
00
ENDCHAR
STARTCHAR .null
ENCODING -1
SWIDTH 0 0
DWIDTH 0 0
BBX 1 1 0 0
BITMAP
00
ENDCHAR
STARTCHAR nonmarkingreturn
ENCODING -1
SWIDTH 200 0
DWIDTH 6 0
BBX 1 1 0 0
BITMAP
00
ENDCHAR
ENDFONT
